<svg width="32" height="32" viewBox="0 0 32 32" fill="none" xmlns="http://www.w3.org/2000/svg">
<path d="M11.578 20.4525C11.578 20.9617 11.127 21.3842 10.599 21.3842H9.686V19.5208H10.61C11.138 19.5208 11.589 19.9433 11.589 20.4525H11.578ZM19.3 11.6667H26.494C26.109 10.6808 25.526 9.77083 24.745 9.00167L20.917 5.22083C20.136 4.45167 19.212 3.8775 18.211 3.49833V10.5833C18.211 11.1792 18.706 11.6667 19.311 11.6667H19.3ZM16.099 19.5208H15.175V23.3125H16.099C16.627 23.3125 17.078 22.89 17.078 22.3808V20.4525C17.078 19.9433 16.627 19.5208 16.099 19.5208ZM27 14.3642V23.5833C27 26.5733 24.536 29 21.5 29H10.5C7.464 29 5 26.5733 5 23.5833V8.41667C5 5.42667 7.464 3 10.5 3H15.461C15.637 3 15.813 3.01083 16 3.02167V10.5833C16 12.3708 17.485 13.8333 19.3 13.8333H26.978C26.989 14.0067 27 14.18 27 14.3642ZM12.953 20.4525C12.953 19.1958 11.897 18.1667 10.599 18.1667H9.4C8.795 18.1667 8.3 18.6542 8.3 19.25V24.06C8.3 24.4392 8.608 24.7317 8.982 24.7317C9.356 24.7317 9.664 24.4283 9.664 24.06V22.7383H10.588C11.886 22.7383 12.942 21.7092 12.942 20.4525H12.953ZM18.453 20.4525C18.453 19.1958 17.397 18.1667 16.099 18.1667H14.9C14.295 18.1667 13.8 18.6542 13.8 19.25V24.06C13.8 24.4392 14.108 24.6667 14.482 24.6667C14.856 24.6667 16.088 24.6667 16.088 24.6667C17.386 24.6667 18.442 23.6375 18.442 22.3808V20.4525H18.453ZM23.722 18.8492C23.722 18.47 23.414 18.1775 23.04 18.1775H20.499C20.114 18.1775 19.817 18.4808 19.817 18.8492V24.06C19.817 24.4392 20.125 24.7317 20.499 24.7317C20.873 24.7317 21.181 24.4283 21.181 24.06V22.11H22.545C22.93 22.11 23.227 21.8067 23.227 21.4383C23.227 21.07 22.919 20.7667 22.545 20.7667H21.181V19.5317H23.04C23.425 19.5317 23.722 19.2283 23.722 18.86V18.8492Z" fill="#A1A5A8"/>
</svg>
