<svg width="32" height="32" viewBox="0 0 32 32" fill="none" xmlns="http://www.w3.org/2000/svg">
<path d="M18.2 10.5833V3.49833C19.2176 3.87678 20.1418 4.46392 20.9115 5.22083L24.7439 8.99733C25.5133 9.75445 26.11 10.6645 26.494 11.6667H19.3C19.0083 11.6667 18.7285 11.5525 18.5222 11.3494C18.3159 11.1462 18.2 10.8707 18.2 10.5833ZM27 14.3588V23.5833C26.9983 25.0194 26.4182 26.3961 25.3872 27.4116C24.3561 28.427 22.9582 28.9983 21.5 29H10.5C9.04185 28.9983 7.64391 28.427 6.61284 27.4116C5.58177 26.3961 5.00175 25.0194 5 23.5833V8.41667C5.00175 6.98061 5.58177 5.60385 6.61284 4.5884C7.64391 3.57296 9.04185 3.00172 10.5 3L15.4665 3C15.6458 3 15.8229 3.01408 16 3.026V10.5833C16 11.4453 16.3477 12.2719 16.9665 12.8814C17.5854 13.4909 18.4248 13.8333 19.3 13.8333H26.9736C26.9857 14.0078 27 14.1822 27 14.3588ZM18.2 23.5833C18.2 23.296 18.0841 23.0205 17.8778 22.8173C17.6715 22.6141 17.3917 22.5 17.1 22.5H11.6C11.3083 22.5 11.0285 22.6141 10.8222 22.8173C10.6159 23.0205 10.5 23.296 10.5 23.5833C10.5 23.8707 10.6159 24.1462 10.8222 24.3494C11.0285 24.5525 11.3083 24.6667 11.6 24.6667H17.1C17.3917 24.6667 17.6715 24.5525 17.8778 24.3494C18.0841 24.1462 18.2 23.8707 18.2 23.5833ZM21.5 19.25C21.5 18.9627 21.3841 18.6871 21.1778 18.484C20.9715 18.2808 20.6917 18.1667 20.4 18.1667H11.6C11.3083 18.1667 11.0285 18.2808 10.8222 18.484C10.6159 18.6871 10.5 18.9627 10.5 19.25C10.5 19.5373 10.6159 19.8129 10.8222 20.016C11.0285 20.2192 11.3083 20.3333 11.6 20.3333H20.4C20.6917 20.3333 20.9715 20.2192 21.1778 20.016C21.3841 19.8129 21.5 19.5373 21.5 19.25Z" fill="#A1A5A8"/>
</svg>
