<?xml version="1.0" encoding="UTF-8" standalone="no"?>
<!-- Created with Inkscape (http://www.inkscape.org/) -->

<svg
   version="1.1"
   id="svg2"
   xml:space="preserve"
   width="568.40002"
   height="613.8667"
   viewBox="0 0 568.40002 613.8667"
   sodipodi:docname="convert.eps"
   xmlns:inkscape="http://www.inkscape.org/namespaces/inkscape"
   xmlns:sodipodi="http://sodipodi.sourceforge.net/DTD/sodipodi-0.dtd"
   xmlns="http://www.w3.org/2000/svg"
   xmlns:svg="http://www.w3.org/2000/svg"><defs
     id="defs6" /><sodipodi:namedview
     id="namedview4"
     pagecolor="#ffffff"
     bordercolor="#666666"
     borderopacity="1.0"
     inkscape:pageshadow="2"
     inkscape:pageopacity="0.0"
     inkscape:pagecheckerboard="0" /><g
     id="g8"
     inkscape:groupmode="layer"
     inkscape:label="ink_ext_XXXXXX"
     transform="matrix(1.3333333,0,0,-1.3333333,0,613.86667)"><g
       id="g10"
       transform="scale(0.1)"><path
         d="m 3805.54,3995.51 v -3.75 h 261.05 v -104.4 l -257.3,0.01 v 108.14 h -3.75 v -3.75 3.75 h -3.75 v -115.64 l 272.3,-0.01 v 119.4 h -272.3 v -3.75 h 3.75"
         style="fill:#e7e8e5;fill-opacity:1;fill-rule:nonzero;stroke:none"
         id="path12" /><path
         d="m 3953.25,4136.61 v -3.75 h 261.07 v -104.4 H 3957 v 108.15 h -3.75 v -3.75 3.75 h -3.75 v -115.65 h 272.32 v 119.4 H 3949.5 v -3.75 h 3.75"
         style="fill:#e7e8e5;fill-opacity:1;fill-rule:nonzero;stroke:none"
         id="path14" /><path
         d="m 2131.48,2894.3 v -3.75 h 261.05 v -104.4 h -257.31 v 108.15 h -3.74 v -3.75 3.75 h -3.75 v -115.65 h 272.3 v 119.4 h -272.3 v -3.75 h 3.75"
         style="fill:#e7e8e5;fill-opacity:1;fill-rule:nonzero;stroke:none"
         id="path16" /><path
         d="m 2279.19,3035.4 v -3.75 h 261.05 v -104.4 h -257.3 v 108.15 h -3.75 v -3.75 3.75 h -3.75 v -115.65 h 272.3 v 119.4 h -272.3 v -3.75 h 3.75"
         style="fill:#e7e8e5;fill-opacity:1;fill-rule:nonzero;stroke:none"
         id="path18" /><path
         d="m 2426.33,2894.3 v -3.75 h 261.05 v -104.4 h -257.3 v 108.15 h -3.75 v -3.75 3.75 h -3.75 v -115.65 h 272.3 v 119.4 h -272.3 v -3.75 h 3.75"
         style="fill:#e7e8e5;fill-opacity:1;fill-rule:nonzero;stroke:none"
         id="path20" /><path
         d="m 44.8867,4136.61 v -3.75 H 305.941 v -104.4 H 48.6367 v 108.15 h -3.75 v -3.75 3.75 h -3.75 V 4020.96 H 313.441 v 119.4 H 41.1367 v -3.75 h 3.75"
         style="fill:#e7e8e5;fill-opacity:1;fill-rule:nonzero;stroke:none"
         id="path22" /><path
         d="m 192.602,1505.5 v -3.75 H 453.656 V 1397.36 H 196.352 v 108.14 h -3.75 v -3.75 3.75 h -3.75 v -115.64 h 272.304 v 119.39 H 188.852 v -3.75 h 3.75"
         style="fill:#e7e8e5;fill-opacity:1;fill-rule:nonzero;stroke:none"
         id="path24" /><path
         d="m 44.8867,1646.6 v -3.75 H 305.941 v -104.4 H 48.6367 v 108.15 h -3.75 v -3.75 3.75 h -3.75 V 1530.95 H 313.441 v 119.4 H 41.1367 v -3.75 h 3.75"
         style="fill:#e7e8e5;fill-opacity:1;fill-rule:nonzero;stroke:none"
         id="path26" /><path
         d="m 3805.54,1505.5 v -3.75 h 261.05 v -104.39 h -257.3 v 108.14 h -3.75 v -3.75 3.75 h -3.75 v -115.64 h 272.3 v 119.39 h -272.3 v -3.75 h 3.75"
         style="fill:#e7e8e5;fill-opacity:1;fill-rule:nonzero;stroke:none"
         id="path28" /><path
         d="M 1724.69,388.582 V 1643.58 l 267.3,364.82 v 684.98 h -10 v -681.71 l -267.3,-364.82 V 388.582 h 10"
         style="fill:#e7e8e5;fill-opacity:1;fill-rule:nonzero;stroke:none"
         id="path30" /><path
         d="m 1963.24,2716.73 h -5 c 0.01,-15.88 12.87,-28.75 28.75,-28.76 15.89,0.01 28.75,12.88 28.75,28.76 0,15.88 -12.86,28.75 -28.75,28.75 -15.88,0 -28.74,-12.87 -28.75,-28.75 h 5 5 c 0.02,10.35 8.4,18.73 18.75,18.75 10.36,-0.02 18.73,-8.4 18.75,-18.75 -0.02,-10.36 -8.39,-18.74 -18.75,-18.76 -10.35,0.02 -18.73,8.4 -18.75,18.76 h -5"
         style="fill:#e7e8e5;fill-opacity:1;fill-rule:nonzero;stroke:none"
         id="path32" /><path
         d="M 1793.54,388.582 V 1599.49 l 267.3,364.83 v 479.09 h -10 v -475.82 l -267.3,-364.83 V 388.582 h 10"
         style="fill:#e7e8e5;fill-opacity:1;fill-rule:nonzero;stroke:none"
         id="path34" /><path
         d="m 2032.09,2466.75 h -5 c 0,-15.87 12.87,-28.74 28.75,-28.75 15.88,0.01 28.75,12.87 28.75,28.75 0,15.88 -12.87,28.75 -28.75,28.75 -15.88,0 -28.75,-12.87 -28.75,-28.75 h 5 5 c 0.02,10.36 8.39,18.73 18.75,18.75 10.35,-0.02 18.73,-8.4 18.75,-18.75 -0.02,-10.35 -8.4,-18.73 -18.75,-18.75 -10.36,0.02 -18.73,8.4 -18.75,18.75 h -5"
         style="fill:#e7e8e5;fill-opacity:1;fill-rule:nonzero;stroke:none"
         id="path36" /><path
         d="m 1648.35,388.582 h 10 v 1664.1 h -10 z"
         style="fill:#e7e8e5;fill-opacity:1;fill-rule:nonzero;stroke:none"
         id="path38" /><path
         d="m 1629.6,2076.43 h -5 c 0.01,-15.88 12.88,-28.75 28.75,-28.75 15.89,0 28.76,12.87 28.76,28.75 0,15.88 -12.87,28.75 -28.76,28.75 -15.87,0 -28.74,-12.87 -28.75,-28.75 h 5 5 c 0.02,10.35 8.4,18.73 18.75,18.75 10.36,-0.02 18.74,-8.4 18.76,-18.75 -0.02,-10.35 -8.4,-18.73 -18.76,-18.75 -10.35,0.02 -18.73,8.4 -18.75,18.75 h -5"
         style="fill:#e7e8e5;fill-opacity:1;fill-rule:nonzero;stroke:none"
         id="path40" /><path
         d="m 1594.51,388.582 v 846.998 l -181.48,342.29 v 612.39 h -10 v -614.88 l 181.48,-342.29 V 388.582 h 10"
         style="fill:#e7e8e5;fill-opacity:1;fill-rule:nonzero;stroke:none"
         id="path42" /><path
         d="m 1384.28,2214.01 h -5 c 0,-15.88 12.87,-28.74 28.75,-28.75 15.88,0.01 28.74,12.87 28.75,28.75 -0.01,15.88 -12.87,28.75 -28.75,28.75 -15.89,0 -28.75,-12.87 -28.75,-28.75 h 5 5 c 0.02,10.36 8.39,18.74 18.75,18.75 10.35,-0.01 18.73,-8.39 18.75,-18.75 -0.02,-10.35 -8.4,-18.73 -18.75,-18.75 -10.36,0.02 -18.73,8.4 -18.75,18.75 h -5"
         style="fill:#e7e8e5;fill-opacity:1;fill-rule:nonzero;stroke:none"
         id="path44" /><path
         d="m 1531.02,388.582 v 810.498 l -213.95,378.4 v 402.84 h -10 v -405.47 l 213.95,-378.41 V 388.582 h 10"
         style="fill:#e7e8e5;fill-opacity:1;fill-rule:nonzero;stroke:none"
         id="path46" /><path
         d="m 1288.32,2004.07 h -5 c 0,-15.88 12.87,-28.75 28.75,-28.75 15.88,0 28.75,12.87 28.75,28.75 0,15.88 -12.87,28.74 -28.75,28.75 -15.88,-0.01 -28.75,-12.87 -28.75,-28.75 h 5 5 c 0.02,10.35 8.39,18.73 18.75,18.75 10.35,-0.02 18.73,-8.4 18.75,-18.75 -0.02,-10.35 -8.4,-18.73 -18.75,-18.75 -10.36,0.02 -18.73,8.4 -18.75,18.75 h -5"
         style="fill:#e7e8e5;fill-opacity:1;fill-rule:nonzero;stroke:none"
         id="path48" /><path
         d="m 733.707,4228.42 h 10 v 375.559 h -10 z"
         style="fill:#bebfbd;fill-opacity:1;fill-rule:nonzero;stroke:none"
         id="path50" /><path
         d="M 970.766,4004.73 952.105,3963.7 H 525.254 l -18.609,41.03 181.726,125.78 h 100.672 l 181.723,-125.78"
         style="fill:#e7e8e5;fill-opacity:1;fill-rule:nonzero;stroke:none"
         id="path52" /><path
         d="M 801.656,4251.7 789.043,4130.51 H 688.371 l -12.613,121.19 h 125.898"
         style="fill:#d4d6d3;fill-opacity:1;fill-rule:nonzero;stroke:none"
         id="path54" /><path
         d="m 970.746,4004.71 -18.66,-41.03 H 525.234 l -18.609,41.03 h 464.121"
         style="fill:#d4d6d3;fill-opacity:1;fill-rule:nonzero;stroke:none"
         id="path56" /><path
         d="m 1662.23,4228.42 h 10 v 375.559 h -10 z"
         style="fill:#bebfbd;fill-opacity:1;fill-rule:nonzero;stroke:none"
         id="path58" /><path
         d="m 1899.29,4004.73 -18.67,-41.03 h -426.85 l -18.61,41.03 181.73,125.78 h 100.67 l 181.73,-125.78"
         style="fill:#e7e8e5;fill-opacity:1;fill-rule:nonzero;stroke:none"
         id="path60" /><path
         d="m 1730.18,4251.7 -12.62,-121.19 h -100.67 l -12.61,121.19 h 125.9"
         style="fill:#d4d6d3;fill-opacity:1;fill-rule:nonzero;stroke:none"
         id="path62" /><path
         d="m 1899.27,4004.71 -18.67,-41.03 h -426.84 l -18.62,41.03 h 464.13"
         style="fill:#d4d6d3;fill-opacity:1;fill-rule:nonzero;stroke:none"
         id="path64" /><path
         d="m 2590.74,4228.42 h 10 v 375.559 h -10 z"
         style="fill:#bebfbd;fill-opacity:1;fill-rule:nonzero;stroke:none"
         id="path66" /><path
         d="m 2827.8,4004.73 -18.66,-41.03 H 2382.3 l -18.62,41.03 181.73,125.78 h 100.67 l 181.72,-125.78"
         style="fill:#e7e8e5;fill-opacity:1;fill-rule:nonzero;stroke:none"
         id="path68" /><path
         d="m 2658.69,4251.7 -12.61,-121.19 h -100.67 l -12.62,121.19 h 125.9"
         style="fill:#d4d6d3;fill-opacity:1;fill-rule:nonzero;stroke:none"
         id="path70" /><path
         d="m 2827.78,4004.71 -18.66,-41.03 h -426.84 l -18.62,41.03 h 464.12"
         style="fill:#d4d6d3;fill-opacity:1;fill-rule:nonzero;stroke:none"
         id="path72" /><path
         d="m 3519.26,4228.42 h 10 v 375.559 h -10 z"
         style="fill:#bebfbd;fill-opacity:1;fill-rule:nonzero;stroke:none"
         id="path74" /><path
         d="m 3756.33,4004.73 -18.67,-41.03 h -426.85 l -18.61,41.03 181.73,125.78 h 100.67 l 181.73,-125.78"
         style="fill:#e7e8e5;fill-opacity:1;fill-rule:nonzero;stroke:none"
         id="path76" /><path
         d="m 3587.21,4251.7 -12.61,-121.19 h -100.67 l -12.61,121.19 h 125.89"
         style="fill:#d4d6d3;fill-opacity:1;fill-rule:nonzero;stroke:none"
         id="path78" /><path
         d="m 3756.31,4004.71 -18.67,-41.03 h -426.85 l -18.61,41.03 h 464.13"
         style="fill:#d4d6d3;fill-opacity:1;fill-rule:nonzero;stroke:none"
         id="path80" /><path
         d="M 2533.54,169.859 C 2533.54,76.0508 2057.12,0.0117188 1469.41,0.0117188 881.711,0.0117188 405.285,76.0508 405.285,169.859 c 0,93.821 476.426,169.86 1064.125,169.86 587.71,0 1064.13,-76.039 1064.13,-169.86"
         style="fill:#e7e8e5;fill-opacity:1;fill-rule:nonzero;stroke:none"
         id="path82" /><path
         d="m 2955.42,388.051 h -650.2 V 2839.78 h 650.2 V 388.051"
         style="fill:#273e47;fill-opacity:1;fill-rule:nonzero;stroke:none"
         id="path84" /><path
         d="M 4152.04,388.051 H 2955.42 V 2839.78 H 4152.04 V 388.051"
         style="fill:#33535f;fill-opacity:1;fill-rule:nonzero;stroke:none"
         id="path86" /><path
         d="M 4077.27,467.68 H 3045.15 V 706.039 H 4077.27 V 467.68"
         style="fill:#273e47;fill-opacity:1;fill-rule:nonzero;stroke:none"
         id="path88" /><path
         d="m 3676.09,646.559 h -587.5 v 20.121 h 587.5 v -20.121"
         style="fill:#33535f;fill-opacity:1;fill-rule:nonzero;stroke:none"
         id="path90" /><path
         d="m 3676.09,611.68 h -587.5 v 20.109 h 587.5 V 611.68"
         style="fill:#33535f;fill-opacity:1;fill-rule:nonzero;stroke:none"
         id="path92" /><path
         d="m 3676.09,576.801 h -587.5 v 20.121 h 587.5 v -20.121"
         style="fill:#33535f;fill-opacity:1;fill-rule:nonzero;stroke:none"
         id="path94" /><path
         d="m 3676.09,541.93 h -587.5 v 20.121 h 587.5 V 541.93"
         style="fill:#33535f;fill-opacity:1;fill-rule:nonzero;stroke:none"
         id="path96" /><path
         d="m 3676.09,507.059 h -587.5 v 20.113 h 587.5 v -20.113"
         style="fill:#33535f;fill-opacity:1;fill-rule:nonzero;stroke:none"
         id="path98" /><path
         d="m 3783.19,646.719 c 0,-11.02 -8.93,-19.957 -19.95,-19.957 -11.02,0 -19.95,8.937 -19.95,19.957 0,11.019 8.93,19.961 19.95,19.961 11.02,0 19.95,-8.942 19.95,-19.961"
         style="fill:#fabb1e;fill-opacity:1;fill-rule:nonzero;stroke:none"
         id="path100" /><path
         d="m 3848.97,646.719 c 0,-11.02 -8.93,-19.957 -19.96,-19.957 -11.01,0 -19.95,8.937 -19.95,19.957 0,11.019 8.94,19.961 19.95,19.961 11.03,0 19.96,-8.942 19.96,-19.961"
         style="fill:#fabb1e;fill-opacity:1;fill-rule:nonzero;stroke:none"
         id="path102" /><path
         d="m 3914.74,646.719 c 0,-11.02 -8.93,-19.957 -19.95,-19.957 -11.02,0 -19.96,8.937 -19.96,19.957 0,11.019 8.94,19.961 19.96,19.961 11.02,0 19.95,-8.942 19.95,-19.961"
         style="fill:#fabb1e;fill-opacity:1;fill-rule:nonzero;stroke:none"
         id="path104" /><path
         d="m 3980.52,646.719 c 0,-11.02 -8.94,-19.957 -19.95,-19.957 -11.03,0 -19.95,8.937 -19.95,19.957 0,11.019 8.92,19.961 19.95,19.961 11.01,0 19.95,-8.942 19.95,-19.961"
         style="fill:#fabb1e;fill-opacity:1;fill-rule:nonzero;stroke:none"
         id="path106" /><path
         d="m 4046.29,646.719 c 0,-11.02 -8.94,-19.957 -19.95,-19.957 -11.02,0 -19.95,8.937 -19.95,19.957 0,11.019 8.93,19.961 19.95,19.961 11.01,0 19.95,-8.942 19.95,-19.961"
         style="fill:#fabb1e;fill-opacity:1;fill-rule:nonzero;stroke:none"
         id="path108" /><path
         d="m 3783.19,586.859 c 0,-11.007 -8.93,-19.949 -19.95,-19.949 -11.02,0 -19.95,8.942 -19.95,19.949 0,11.032 8.93,19.95 19.95,19.95 11.02,0 19.95,-8.918 19.95,-19.95"
         style="fill:#fabb1e;fill-opacity:1;fill-rule:nonzero;stroke:none"
         id="path110" /><path
         d="m 3848.97,586.859 c 0,-11.007 -8.93,-19.949 -19.96,-19.949 -11.01,0 -19.95,8.942 -19.95,19.949 0,11.032 8.94,19.95 19.95,19.95 11.03,0 19.96,-8.918 19.96,-19.95"
         style="fill:#fabb1e;fill-opacity:1;fill-rule:nonzero;stroke:none"
         id="path112" /><path
         d="m 3914.74,586.859 c 0,-11.007 -8.93,-19.949 -19.95,-19.949 -11.02,0 -19.96,8.942 -19.96,19.949 0,11.032 8.94,19.95 19.96,19.95 11.02,0 19.95,-8.918 19.95,-19.95"
         style="fill:#fabb1e;fill-opacity:1;fill-rule:nonzero;stroke:none"
         id="path114" /><path
         d="m 3980.52,586.859 c 0,-11.007 -8.94,-19.949 -19.95,-19.949 -11.03,0 -19.95,8.942 -19.95,19.949 0,11.032 8.92,19.95 19.95,19.95 11.01,0 19.95,-8.918 19.95,-19.95"
         style="fill:#fabb1e;fill-opacity:1;fill-rule:nonzero;stroke:none"
         id="path116" /><path
         d="m 4046.29,586.859 c 0,-11.007 -8.94,-19.949 -19.95,-19.949 -11.02,0 -19.95,8.942 -19.95,19.949 0,11.032 8.93,19.95 19.95,19.95 11.01,0 19.95,-8.918 19.95,-19.95"
         style="fill:#fabb1e;fill-opacity:1;fill-rule:nonzero;stroke:none"
         id="path118" /><path
         d="m 3783.19,527.012 c 0,-11.024 -8.93,-19.953 -19.95,-19.953 -11.02,0 -19.95,8.929 -19.95,19.953 0,11.008 8.93,19.949 19.95,19.949 11.02,0 19.95,-8.941 19.95,-19.949"
         style="fill:#fabb1e;fill-opacity:1;fill-rule:nonzero;stroke:none"
         id="path120" /><path
         d="m 3848.97,527.012 c 0,-11.024 -8.93,-19.953 -19.96,-19.953 -11.01,0 -19.95,8.929 -19.95,19.953 0,11.008 8.94,19.949 19.95,19.949 11.03,0 19.96,-8.941 19.96,-19.949"
         style="fill:#fabb1e;fill-opacity:1;fill-rule:nonzero;stroke:none"
         id="path122" /><path
         d="m 3914.74,527.012 c 0,-11.024 -8.93,-19.953 -19.95,-19.953 -11.02,0 -19.96,8.929 -19.96,19.953 0,11.008 8.94,19.949 19.96,19.949 11.02,0 19.95,-8.941 19.95,-19.949"
         style="fill:#fabb1e;fill-opacity:1;fill-rule:nonzero;stroke:none"
         id="path124" /><path
         d="m 3980.52,527.012 c 0,-11.024 -8.94,-19.953 -19.95,-19.953 -11.03,0 -19.95,8.929 -19.95,19.953 0,11.008 8.92,19.949 19.95,19.949 11.01,0 19.95,-8.941 19.95,-19.949"
         style="fill:#fabb1e;fill-opacity:1;fill-rule:nonzero;stroke:none"
         id="path126" /><path
         d="m 4046.29,527.012 c 0,-11.024 -8.94,-19.953 -19.95,-19.953 -11.02,0 -19.95,8.929 -19.95,19.953 0,11.008 8.93,19.949 19.95,19.949 11.01,0 19.95,-8.941 19.95,-19.949"
         style="fill:#fabb1e;fill-opacity:1;fill-rule:nonzero;stroke:none"
         id="path128" /><path
         d="m 3716.93,507.059 h -11.49 V 666.68 h 11.49 V 507.059"
         style="fill:#17282f;fill-opacity:1;fill-rule:nonzero;stroke:none"
         id="path130" /><path
         d="M 4077.27,754.969 H 3045.15 V 993.32 H 4077.27 V 754.969"
         style="fill:#273e47;fill-opacity:1;fill-rule:nonzero;stroke:none"
         id="path132" /><path
         d="m 3676.09,933.828 h -587.5 v 20.121 h 587.5 v -20.121"
         style="fill:#33535f;fill-opacity:1;fill-rule:nonzero;stroke:none"
         id="path134" /><path
         d="m 3676.09,898.961 h -587.5 v 20.121 h 587.5 v -20.121"
         style="fill:#33535f;fill-opacity:1;fill-rule:nonzero;stroke:none"
         id="path136" /><path
         d="m 3676.09,864.082 h -587.5 v 20.117 h 587.5 v -20.117"
         style="fill:#33535f;fill-opacity:1;fill-rule:nonzero;stroke:none"
         id="path138" /><path
         d="m 3676.09,829.199 h -587.5 v 20.121 h 587.5 v -20.121"
         style="fill:#33535f;fill-opacity:1;fill-rule:nonzero;stroke:none"
         id="path140" /><path
         d="m 3676.09,794.332 h -587.5 v 20.117 h 587.5 v -20.117"
         style="fill:#33535f;fill-opacity:1;fill-rule:nonzero;stroke:none"
         id="path142" /><path
         d="m 3783.19,934 c 0,-11.031 -8.93,-19.949 -19.95,-19.949 -11.02,0 -19.95,8.918 -19.95,19.949 0,11.02 8.93,19.949 19.95,19.949 11.02,0 19.95,-8.929 19.95,-19.949"
         style="fill:#fabb1e;fill-opacity:1;fill-rule:nonzero;stroke:none"
         id="path144" /><path
         d="m 3848.97,934 c 0,-11.031 -8.93,-19.949 -19.96,-19.949 -11.01,0 -19.95,8.918 -19.95,19.949 0,11.02 8.94,19.949 19.95,19.949 11.03,0 19.96,-8.929 19.96,-19.949"
         style="fill:#fabb1e;fill-opacity:1;fill-rule:nonzero;stroke:none"
         id="path146" /><path
         d="m 3914.74,934 c 0,-11.031 -8.93,-19.949 -19.95,-19.949 -11.02,0 -19.96,8.918 -19.96,19.949 0,11.02 8.94,19.949 19.96,19.949 11.02,0 19.95,-8.929 19.95,-19.949"
         style="fill:#fabb1e;fill-opacity:1;fill-rule:nonzero;stroke:none"
         id="path148" /><path
         d="m 3980.52,934 c 0,-11.031 -8.94,-19.949 -19.95,-19.949 -11.03,0 -19.95,8.918 -19.95,19.949 0,11.02 8.92,19.949 19.95,19.949 11.01,0 19.95,-8.929 19.95,-19.949"
         style="fill:#fabb1e;fill-opacity:1;fill-rule:nonzero;stroke:none"
         id="path150" /><path
         d="m 4046.29,934 c 0,-11.031 -8.94,-19.949 -19.95,-19.949 -11.02,0 -19.95,8.918 -19.95,19.949 0,11.02 8.93,19.949 19.95,19.949 11.01,0 19.95,-8.929 19.95,-19.949"
         style="fill:#fabb1e;fill-opacity:1;fill-rule:nonzero;stroke:none"
         id="path152" /><path
         d="m 3783.19,874.141 c 0,-11.02 -8.93,-19.95 -19.95,-19.95 -11.02,0 -19.95,8.93 -19.95,19.95 0,11.019 8.93,19.961 19.95,19.961 11.02,0 19.95,-8.942 19.95,-19.961"
         style="fill:#fabb1e;fill-opacity:1;fill-rule:nonzero;stroke:none"
         id="path154" /><path
         d="m 3848.97,874.141 c 0,-11.02 -8.93,-19.95 -19.96,-19.95 -11.01,0 -19.95,8.93 -19.95,19.95 0,11.019 8.94,19.961 19.95,19.961 11.03,0 19.96,-8.942 19.96,-19.961"
         style="fill:#fabb1e;fill-opacity:1;fill-rule:nonzero;stroke:none"
         id="path156" /><path
         d="m 3914.74,874.141 c 0,-11.02 -8.93,-19.95 -19.95,-19.95 -11.02,0 -19.96,8.93 -19.96,19.95 0,11.019 8.94,19.961 19.96,19.961 11.02,0 19.95,-8.942 19.95,-19.961"
         style="fill:#fabb1e;fill-opacity:1;fill-rule:nonzero;stroke:none"
         id="path158" /><path
         d="m 3980.52,874.141 c 0,-11.02 -8.94,-19.95 -19.95,-19.95 -11.03,0 -19.95,8.93 -19.95,19.95 0,11.019 8.92,19.961 19.95,19.961 11.01,0 19.95,-8.942 19.95,-19.961"
         style="fill:#fabb1e;fill-opacity:1;fill-rule:nonzero;stroke:none"
         id="path160" /><path
         d="m 4046.29,874.141 c 0,-11.02 -8.94,-19.95 -19.95,-19.95 -11.02,0 -19.95,8.93 -19.95,19.95 0,11.019 8.93,19.961 19.95,19.961 11.01,0 19.95,-8.942 19.95,-19.961"
         style="fill:#fabb1e;fill-opacity:1;fill-rule:nonzero;stroke:none"
         id="path162" /><path
         d="m 3783.19,814.281 c 0,-11.011 -8.93,-19.949 -19.95,-19.949 -11.02,0 -19.95,8.938 -19.95,19.949 0,11.028 8.93,19.949 19.95,19.949 11.02,0 19.95,-8.921 19.95,-19.949"
         style="fill:#fabb1e;fill-opacity:1;fill-rule:nonzero;stroke:none"
         id="path164" /><path
         d="m 3848.97,814.281 c 0,-11.011 -8.93,-19.949 -19.96,-19.949 -11.01,0 -19.95,8.938 -19.95,19.949 0,11.028 8.94,19.949 19.95,19.949 11.03,0 19.96,-8.921 19.96,-19.949"
         style="fill:#fabb1e;fill-opacity:1;fill-rule:nonzero;stroke:none"
         id="path166" /><path
         d="m 3914.74,814.281 c 0,-11.011 -8.93,-19.949 -19.95,-19.949 -11.02,0 -19.96,8.938 -19.96,19.949 0,11.028 8.94,19.949 19.96,19.949 11.02,0 19.95,-8.921 19.95,-19.949"
         style="fill:#fabb1e;fill-opacity:1;fill-rule:nonzero;stroke:none"
         id="path168" /><path
         d="m 3980.52,814.281 c 0,-11.011 -8.94,-19.949 -19.95,-19.949 -11.03,0 -19.95,8.938 -19.95,19.949 0,11.028 8.92,19.949 19.95,19.949 11.01,0 19.95,-8.921 19.95,-19.949"
         style="fill:#fabb1e;fill-opacity:1;fill-rule:nonzero;stroke:none"
         id="path170" /><path
         d="m 4046.29,814.281 c 0,-11.011 -8.94,-19.949 -19.95,-19.949 -11.02,0 -19.95,8.938 -19.95,19.949 0,11.028 8.93,19.949 19.95,19.949 11.01,0 19.95,-8.921 19.95,-19.949"
         style="fill:#fabb1e;fill-opacity:1;fill-rule:nonzero;stroke:none"
         id="path172" /><path
         d="m 3716.93,794.332 h -11.49 v 159.617 h 11.49 V 794.332"
         style="fill:#17282f;fill-opacity:1;fill-rule:nonzero;stroke:none"
         id="path174" /><path
         d="M 4077.27,1042.24 H 3045.15 v 238.36 h 1032.12 v -238.36"
         style="fill:#273e47;fill-opacity:1;fill-rule:nonzero;stroke:none"
         id="path176" /><path
         d="m 3676.09,1221.11 h -587.5 v 20.12 h 587.5 v -20.12"
         style="fill:#33535f;fill-opacity:1;fill-rule:nonzero;stroke:none"
         id="path178" /><path
         d="m 3676.09,1186.24 h -587.5 v 20.11 h 587.5 v -20.11"
         style="fill:#33535f;fill-opacity:1;fill-rule:nonzero;stroke:none"
         id="path180" /><path
         d="m 3676.09,1151.36 h -587.5 v 20.12 h 587.5 v -20.12"
         style="fill:#33535f;fill-opacity:1;fill-rule:nonzero;stroke:none"
         id="path182" /><path
         d="m 3676.09,1116.49 h -587.5 v 20.12 h 587.5 v -20.12"
         style="fill:#33535f;fill-opacity:1;fill-rule:nonzero;stroke:none"
         id="path184" /><path
         d="m 3676.09,1081.61 h -587.5 v 20.11 h 587.5 v -20.11"
         style="fill:#33535f;fill-opacity:1;fill-rule:nonzero;stroke:none"
         id="path186" /><path
         d="m 3783.19,1221.27 c 0,-11.01 -8.93,-19.95 -19.95,-19.95 -11.02,0 -19.95,8.94 -19.95,19.95 0,11.02 8.93,19.96 19.95,19.96 11.02,0 19.95,-8.94 19.95,-19.96"
         style="fill:#fabb1e;fill-opacity:1;fill-rule:nonzero;stroke:none"
         id="path188" /><path
         d="m 3848.97,1221.27 c 0,-11.01 -8.93,-19.95 -19.96,-19.95 -11.01,0 -19.95,8.94 -19.95,19.95 0,11.02 8.94,19.96 19.95,19.96 11.03,0 19.96,-8.94 19.96,-19.96"
         style="fill:#fabb1e;fill-opacity:1;fill-rule:nonzero;stroke:none"
         id="path190" /><path
         d="m 3914.74,1221.27 c 0,-11.01 -8.93,-19.95 -19.95,-19.95 -11.02,0 -19.96,8.94 -19.96,19.95 0,11.02 8.94,19.96 19.96,19.96 11.02,0 19.95,-8.94 19.95,-19.96"
         style="fill:#fabb1e;fill-opacity:1;fill-rule:nonzero;stroke:none"
         id="path192" /><path
         d="m 3980.52,1221.27 c 0,-11.01 -8.94,-19.95 -19.95,-19.95 -11.03,0 -19.95,8.94 -19.95,19.95 0,11.02 8.92,19.96 19.95,19.96 11.01,0 19.95,-8.94 19.95,-19.96"
         style="fill:#fabb1e;fill-opacity:1;fill-rule:nonzero;stroke:none"
         id="path194" /><path
         d="m 4046.29,1221.27 c 0,-11.01 -8.94,-19.95 -19.95,-19.95 -11.02,0 -19.95,8.94 -19.95,19.95 0,11.02 8.93,19.96 19.95,19.96 11.01,0 19.95,-8.94 19.95,-19.96"
         style="fill:#fabb1e;fill-opacity:1;fill-rule:nonzero;stroke:none"
         id="path196" /><path
         d="m 3783.19,1161.42 c 0,-11.02 -8.93,-19.95 -19.95,-19.95 -11.02,0 -19.95,8.93 -19.95,19.95 0,11.02 8.93,19.95 19.95,19.95 11.02,0 19.95,-8.93 19.95,-19.95"
         style="fill:#fabb1e;fill-opacity:1;fill-rule:nonzero;stroke:none"
         id="path198" /><path
         d="m 3848.97,1161.42 c 0,-11.02 -8.93,-19.95 -19.96,-19.95 -11.01,0 -19.95,8.93 -19.95,19.95 0,11.02 8.94,19.95 19.95,19.95 11.03,0 19.96,-8.93 19.96,-19.95"
         style="fill:#fabb1e;fill-opacity:1;fill-rule:nonzero;stroke:none"
         id="path200" /><path
         d="m 3914.74,1161.42 c 0,-11.02 -8.93,-19.95 -19.95,-19.95 -11.02,0 -19.96,8.93 -19.96,19.95 0,11.02 8.94,19.95 19.96,19.95 11.02,0 19.95,-8.93 19.95,-19.95"
         style="fill:#fabb1e;fill-opacity:1;fill-rule:nonzero;stroke:none"
         id="path202" /><path
         d="m 3980.52,1161.42 c 0,-11.02 -8.94,-19.95 -19.95,-19.95 -11.03,0 -19.95,8.93 -19.95,19.95 0,11.02 8.92,19.95 19.95,19.95 11.01,0 19.95,-8.93 19.95,-19.95"
         style="fill:#fabb1e;fill-opacity:1;fill-rule:nonzero;stroke:none"
         id="path204" /><path
         d="m 4046.29,1161.42 c 0,-11.02 -8.94,-19.95 -19.95,-19.95 -11.02,0 -19.95,8.93 -19.95,19.95 0,11.02 8.93,19.95 19.95,19.95 11.01,0 19.95,-8.93 19.95,-19.95"
         style="fill:#fabb1e;fill-opacity:1;fill-rule:nonzero;stroke:none"
         id="path206" /><path
         d="m 3783.19,1101.56 c 0,-11.02 -8.93,-19.95 -19.95,-19.95 -11.02,0 -19.95,8.93 -19.95,19.95 0,11.02 8.93,19.96 19.95,19.96 11.02,0 19.95,-8.94 19.95,-19.96"
         style="fill:#fabb1e;fill-opacity:1;fill-rule:nonzero;stroke:none"
         id="path208" /><path
         d="m 3848.97,1101.56 c 0,-11.02 -8.93,-19.95 -19.96,-19.95 -11.01,0 -19.95,8.93 -19.95,19.95 0,11.02 8.94,19.96 19.95,19.96 11.03,0 19.96,-8.94 19.96,-19.96"
         style="fill:#fabb1e;fill-opacity:1;fill-rule:nonzero;stroke:none"
         id="path210" /><path
         d="m 3914.74,1101.56 c 0,-11.02 -8.93,-19.95 -19.95,-19.95 -11.02,0 -19.96,8.93 -19.96,19.95 0,11.02 8.94,19.96 19.96,19.96 11.02,0 19.95,-8.94 19.95,-19.96"
         style="fill:#fabb1e;fill-opacity:1;fill-rule:nonzero;stroke:none"
         id="path212" /><path
         d="m 3980.52,1101.56 c 0,-11.02 -8.94,-19.95 -19.95,-19.95 -11.03,0 -19.95,8.93 -19.95,19.95 0,11.02 8.92,19.96 19.95,19.96 11.01,0 19.95,-8.94 19.95,-19.96"
         style="fill:#fabb1e;fill-opacity:1;fill-rule:nonzero;stroke:none"
         id="path214" /><path
         d="m 4046.29,1101.56 c 0,-11.02 -8.94,-19.95 -19.95,-19.95 -11.02,0 -19.95,8.93 -19.95,19.95 0,11.02 8.93,19.96 19.95,19.96 11.01,0 19.95,-8.94 19.95,-19.96"
         style="fill:#fabb1e;fill-opacity:1;fill-rule:nonzero;stroke:none"
         id="path216" /><path
         d="m 3716.93,1081.61 h -11.49 v 159.62 h 11.49 v -159.62"
         style="fill:#17282f;fill-opacity:1;fill-rule:nonzero;stroke:none"
         id="path218" /><path
         d="M 4077.27,1329.52 H 3045.15 v 238.36 h 1032.12 v -238.36"
         style="fill:#273e47;fill-opacity:1;fill-rule:nonzero;stroke:none"
         id="path220" /><path
         d="m 3676.09,1508.38 h -587.5 v 20.12 h 587.5 v -20.12"
         style="fill:#33535f;fill-opacity:1;fill-rule:nonzero;stroke:none"
         id="path222" /><path
         d="m 3676.09,1473.51 h -587.5 v 20.12 h 587.5 v -20.12"
         style="fill:#33535f;fill-opacity:1;fill-rule:nonzero;stroke:none"
         id="path224" /><path
         d="m 3676.09,1438.64 h -587.5 v 20.12 h 587.5 v -20.12"
         style="fill:#33535f;fill-opacity:1;fill-rule:nonzero;stroke:none"
         id="path226" /><path
         d="m 3676.09,1403.77 h -587.5 v 20.11 h 587.5 v -20.11"
         style="fill:#33535f;fill-opacity:1;fill-rule:nonzero;stroke:none"
         id="path228" /><path
         d="m 3676.09,1368.89 h -587.5 v 20.12 h 587.5 v -20.12"
         style="fill:#33535f;fill-opacity:1;fill-rule:nonzero;stroke:none"
         id="path230" /><path
         d="m 3783.19,1508.55 c 0,-11.02 -8.93,-19.95 -19.95,-19.95 -11.02,0 -19.95,8.93 -19.95,19.95 0,11.03 8.93,19.95 19.95,19.95 11.02,0 19.95,-8.92 19.95,-19.95"
         style="fill:#fabb1e;fill-opacity:1;fill-rule:nonzero;stroke:none"
         id="path232" /><path
         d="m 3848.97,1508.55 c 0,-11.02 -8.93,-19.95 -19.96,-19.95 -11.01,0 -19.95,8.93 -19.95,19.95 0,11.03 8.94,19.95 19.95,19.95 11.03,0 19.96,-8.92 19.96,-19.95"
         style="fill:#fabb1e;fill-opacity:1;fill-rule:nonzero;stroke:none"
         id="path234" /><path
         d="m 3914.74,1508.55 c 0,-11.02 -8.93,-19.95 -19.95,-19.95 -11.02,0 -19.96,8.93 -19.96,19.95 0,11.03 8.94,19.95 19.96,19.95 11.02,0 19.95,-8.92 19.95,-19.95"
         style="fill:#fabb1e;fill-opacity:1;fill-rule:nonzero;stroke:none"
         id="path236" /><path
         d="m 3980.52,1508.55 c 0,-11.02 -8.94,-19.95 -19.95,-19.95 -11.03,0 -19.95,8.93 -19.95,19.95 0,11.03 8.92,19.95 19.95,19.95 11.01,0 19.95,-8.92 19.95,-19.95"
         style="fill:#fabb1e;fill-opacity:1;fill-rule:nonzero;stroke:none"
         id="path238" /><path
         d="m 4046.29,1508.55 c 0,-11.02 -8.94,-19.95 -19.95,-19.95 -11.02,0 -19.95,8.93 -19.95,19.95 0,11.03 8.93,19.95 19.95,19.95 11.01,0 19.95,-8.92 19.95,-19.95"
         style="fill:#fabb1e;fill-opacity:1;fill-rule:nonzero;stroke:none"
         id="path240" /><path
         d="m 3783.19,1448.7 c 0,-11.02 -8.93,-19.95 -19.95,-19.95 -11.02,0 -19.95,8.93 -19.95,19.95 0,11.01 8.93,19.95 19.95,19.95 11.02,0 19.95,-8.94 19.95,-19.95"
         style="fill:#fabb1e;fill-opacity:1;fill-rule:nonzero;stroke:none"
         id="path242" /><path
         d="m 3848.97,1448.7 c 0,-11.02 -8.93,-19.95 -19.96,-19.95 -11.01,0 -19.95,8.93 -19.95,19.95 0,11.01 8.94,19.95 19.95,19.95 11.03,0 19.96,-8.94 19.96,-19.95"
         style="fill:#fabb1e;fill-opacity:1;fill-rule:nonzero;stroke:none"
         id="path244" /><path
         d="m 3914.74,1448.7 c 0,-11.02 -8.93,-19.95 -19.95,-19.95 -11.02,0 -19.96,8.93 -19.96,19.95 0,11.01 8.94,19.95 19.96,19.95 11.02,0 19.95,-8.94 19.95,-19.95"
         style="fill:#fabb1e;fill-opacity:1;fill-rule:nonzero;stroke:none"
         id="path246" /><path
         d="m 3980.52,1448.7 c 0,-11.02 -8.94,-19.95 -19.95,-19.95 -11.03,0 -19.95,8.93 -19.95,19.95 0,11.01 8.92,19.95 19.95,19.95 11.01,0 19.95,-8.94 19.95,-19.95"
         style="fill:#fabb1e;fill-opacity:1;fill-rule:nonzero;stroke:none"
         id="path248" /><path
         d="m 4046.29,1448.7 c 0,-11.02 -8.94,-19.95 -19.95,-19.95 -11.02,0 -19.95,8.93 -19.95,19.95 0,11.01 8.93,19.95 19.95,19.95 11.01,0 19.95,-8.94 19.95,-19.95"
         style="fill:#fabb1e;fill-opacity:1;fill-rule:nonzero;stroke:none"
         id="path250" /><path
         d="m 3783.19,1388.84 c 0,-11.02 -8.93,-19.95 -19.95,-19.95 -11.02,0 -19.95,8.93 -19.95,19.95 0,11.02 8.93,19.95 19.95,19.95 11.02,0 19.95,-8.93 19.95,-19.95"
         style="fill:#fabb1e;fill-opacity:1;fill-rule:nonzero;stroke:none"
         id="path252" /><path
         d="m 3848.97,1388.84 c 0,-11.02 -8.93,-19.95 -19.96,-19.95 -11.01,0 -19.95,8.93 -19.95,19.95 0,11.02 8.94,19.95 19.95,19.95 11.03,0 19.96,-8.93 19.96,-19.95"
         style="fill:#fabb1e;fill-opacity:1;fill-rule:nonzero;stroke:none"
         id="path254" /><path
         d="m 3914.74,1388.84 c 0,-11.02 -8.93,-19.95 -19.95,-19.95 -11.02,0 -19.96,8.93 -19.96,19.95 0,11.02 8.94,19.95 19.96,19.95 11.02,0 19.95,-8.93 19.95,-19.95"
         style="fill:#fabb1e;fill-opacity:1;fill-rule:nonzero;stroke:none"
         id="path256" /><path
         d="m 3980.52,1388.84 c 0,-11.02 -8.94,-19.95 -19.95,-19.95 -11.03,0 -19.95,8.93 -19.95,19.95 0,11.02 8.92,19.95 19.95,19.95 11.01,0 19.95,-8.93 19.95,-19.95"
         style="fill:#fabb1e;fill-opacity:1;fill-rule:nonzero;stroke:none"
         id="path258" /><path
         d="m 4046.29,1388.84 c 0,-11.02 -8.94,-19.95 -19.95,-19.95 -11.02,0 -19.95,8.93 -19.95,19.95 0,11.02 8.93,19.95 19.95,19.95 11.01,0 19.95,-8.93 19.95,-19.95"
         style="fill:#fabb1e;fill-opacity:1;fill-rule:nonzero;stroke:none"
         id="path260" /><path
         d="m 3716.93,1368.89 h -11.49 v 159.61 h 11.49 v -159.61"
         style="fill:#17282f;fill-opacity:1;fill-rule:nonzero;stroke:none"
         id="path262" /><path
         d="M 4077.27,1616.79 H 3045.15 v 238.36 h 1032.12 v -238.36"
         style="fill:#273e47;fill-opacity:1;fill-rule:nonzero;stroke:none"
         id="path264" /><path
         d="m 3676.09,1795.67 h -587.5 v 20.12 h 587.5 v -20.12"
         style="fill:#33535f;fill-opacity:1;fill-rule:nonzero;stroke:none"
         id="path266" /><path
         d="m 3676.09,1760.79 h -587.5 v 20.11 h 587.5 v -20.11"
         style="fill:#33535f;fill-opacity:1;fill-rule:nonzero;stroke:none"
         id="path268" /><path
         d="m 3676.09,1725.91 h -587.5 v 20.12 h 587.5 v -20.12"
         style="fill:#33535f;fill-opacity:1;fill-rule:nonzero;stroke:none"
         id="path270" /><path
         d="m 3676.09,1691.04 h -587.5 v 20.12 h 587.5 v -20.12"
         style="fill:#33535f;fill-opacity:1;fill-rule:nonzero;stroke:none"
         id="path272" /><path
         d="m 3676.09,1656.17 h -587.5 v 20.11 h 587.5 v -20.11"
         style="fill:#33535f;fill-opacity:1;fill-rule:nonzero;stroke:none"
         id="path274" /><path
         d="m 3783.19,1795.83 c 0,-11.02 -8.93,-19.96 -19.95,-19.96 -11.02,0 -19.95,8.94 -19.95,19.96 0,11.02 8.93,19.96 19.95,19.96 11.02,0 19.95,-8.94 19.95,-19.96"
         style="fill:#fabb1e;fill-opacity:1;fill-rule:nonzero;stroke:none"
         id="path276" /><path
         d="m 3848.97,1795.83 c 0,-11.02 -8.93,-19.96 -19.96,-19.96 -11.01,0 -19.95,8.94 -19.95,19.96 0,11.02 8.94,19.96 19.95,19.96 11.03,0 19.96,-8.94 19.96,-19.96"
         style="fill:#fabb1e;fill-opacity:1;fill-rule:nonzero;stroke:none"
         id="path278" /><path
         d="m 3914.74,1795.83 c 0,-11.02 -8.93,-19.96 -19.95,-19.96 -11.02,0 -19.96,8.94 -19.96,19.96 0,11.02 8.94,19.96 19.96,19.96 11.02,0 19.95,-8.94 19.95,-19.96"
         style="fill:#fabb1e;fill-opacity:1;fill-rule:nonzero;stroke:none"
         id="path280" /><path
         d="m 3980.52,1795.83 c 0,-11.02 -8.94,-19.96 -19.95,-19.96 -11.03,0 -19.95,8.94 -19.95,19.96 0,11.02 8.92,19.96 19.95,19.96 11.01,0 19.95,-8.94 19.95,-19.96"
         style="fill:#fabb1e;fill-opacity:1;fill-rule:nonzero;stroke:none"
         id="path282" /><path
         d="m 4046.29,1795.83 c 0,-11.02 -8.94,-19.96 -19.95,-19.96 -11.02,0 -19.95,8.94 -19.95,19.96 0,11.02 8.93,19.96 19.95,19.96 11.01,0 19.95,-8.94 19.95,-19.96"
         style="fill:#fabb1e;fill-opacity:1;fill-rule:nonzero;stroke:none"
         id="path284" /><path
         d="m 3783.19,1735.97 c 0,-11.01 -8.93,-19.95 -19.95,-19.95 -11.02,0 -19.95,8.94 -19.95,19.95 0,11.03 8.93,19.95 19.95,19.95 11.02,0 19.95,-8.92 19.95,-19.95"
         style="fill:#fabb1e;fill-opacity:1;fill-rule:nonzero;stroke:none"
         id="path286" /><path
         d="m 3848.97,1735.97 c 0,-11.01 -8.93,-19.95 -19.96,-19.95 -11.01,0 -19.95,8.94 -19.95,19.95 0,11.03 8.94,19.95 19.95,19.95 11.03,0 19.96,-8.92 19.96,-19.95"
         style="fill:#fabb1e;fill-opacity:1;fill-rule:nonzero;stroke:none"
         id="path288" /><path
         d="m 3914.74,1735.97 c 0,-11.01 -8.93,-19.95 -19.95,-19.95 -11.02,0 -19.96,8.94 -19.96,19.95 0,11.03 8.94,19.95 19.96,19.95 11.02,0 19.95,-8.92 19.95,-19.95"
         style="fill:#fabb1e;fill-opacity:1;fill-rule:nonzero;stroke:none"
         id="path290" /><path
         d="m 3980.52,1735.97 c 0,-11.01 -8.94,-19.95 -19.95,-19.95 -11.03,0 -19.95,8.94 -19.95,19.95 0,11.03 8.92,19.95 19.95,19.95 11.01,0 19.95,-8.92 19.95,-19.95"
         style="fill:#fabb1e;fill-opacity:1;fill-rule:nonzero;stroke:none"
         id="path292" /><path
         d="m 4046.29,1735.97 c 0,-11.01 -8.94,-19.95 -19.95,-19.95 -11.02,0 -19.95,8.94 -19.95,19.95 0,11.03 8.93,19.95 19.95,19.95 11.01,0 19.95,-8.92 19.95,-19.95"
         style="fill:#fabb1e;fill-opacity:1;fill-rule:nonzero;stroke:none"
         id="path294" /><path
         d="m 3783.19,1676.12 c 0,-11.02 -8.93,-19.95 -19.95,-19.95 -11.02,0 -19.95,8.93 -19.95,19.95 0,11.01 8.93,19.95 19.95,19.95 11.02,0 19.95,-8.94 19.95,-19.95"
         style="fill:#fabb1e;fill-opacity:1;fill-rule:nonzero;stroke:none"
         id="path296" /><path
         d="m 3848.97,1676.12 c 0,-11.02 -8.93,-19.95 -19.96,-19.95 -11.01,0 -19.95,8.93 -19.95,19.95 0,11.01 8.94,19.95 19.95,19.95 11.03,0 19.96,-8.94 19.96,-19.95"
         style="fill:#fabb1e;fill-opacity:1;fill-rule:nonzero;stroke:none"
         id="path298" /><path
         d="m 3914.74,1676.12 c 0,-11.02 -8.93,-19.95 -19.95,-19.95 -11.02,0 -19.96,8.93 -19.96,19.95 0,11.01 8.94,19.95 19.96,19.95 11.02,0 19.95,-8.94 19.95,-19.95"
         style="fill:#fabb1e;fill-opacity:1;fill-rule:nonzero;stroke:none"
         id="path300" /><path
         d="m 3980.52,1676.12 c 0,-11.02 -8.94,-19.95 -19.95,-19.95 -11.03,0 -19.95,8.93 -19.95,19.95 0,11.01 8.92,19.95 19.95,19.95 11.01,0 19.95,-8.94 19.95,-19.95"
         style="fill:#fabb1e;fill-opacity:1;fill-rule:nonzero;stroke:none"
         id="path302" /><path
         d="m 4046.29,1676.12 c 0,-11.02 -8.94,-19.95 -19.95,-19.95 -11.02,0 -19.95,8.93 -19.95,19.95 0,11.01 8.93,19.95 19.95,19.95 11.01,0 19.95,-8.94 19.95,-19.95"
         style="fill:#fabb1e;fill-opacity:1;fill-rule:nonzero;stroke:none"
         id="path304" /><path
         d="m 3716.93,1656.17 h -11.49 v 159.62 h 11.49 v -159.62"
         style="fill:#17282f;fill-opacity:1;fill-rule:nonzero;stroke:none"
         id="path306" /><path
         d="M 4077.27,1904.08 H 3045.15 v 238.35 h 1032.12 v -238.35"
         style="fill:#273e47;fill-opacity:1;fill-rule:nonzero;stroke:none"
         id="path308" /><path
         d="m 3676.09,2082.94 h -587.5 v 20.12 h 587.5 v -20.12"
         style="fill:#33535f;fill-opacity:1;fill-rule:nonzero;stroke:none"
         id="path310" /><path
         d="m 3676.09,2048.07 h -587.5 v 20.12 h 587.5 v -20.12"
         style="fill:#33535f;fill-opacity:1;fill-rule:nonzero;stroke:none"
         id="path312" /><path
         d="m 3676.09,2013.19 h -587.5 v 20.12 h 587.5 v -20.12"
         style="fill:#33535f;fill-opacity:1;fill-rule:nonzero;stroke:none"
         id="path314" /><path
         d="m 3676.09,1978.32 h -587.5 v 20.11 h 587.5 v -20.11"
         style="fill:#33535f;fill-opacity:1;fill-rule:nonzero;stroke:none"
         id="path316" /><path
         d="m 3676.09,1943.44 h -587.5 v 20.12 h 587.5 v -20.12"
         style="fill:#33535f;fill-opacity:1;fill-rule:nonzero;stroke:none"
         id="path318" /><path
         d="m 3783.19,2083.11 c 0,-11.02 -8.93,-19.95 -19.95,-19.95 -11.02,0 -19.95,8.93 -19.95,19.95 0,11.02 8.93,19.95 19.95,19.95 11.02,0 19.95,-8.93 19.95,-19.95"
         style="fill:#fabb1e;fill-opacity:1;fill-rule:nonzero;stroke:none"
         id="path320" /><path
         d="m 3848.97,2083.11 c 0,-11.02 -8.93,-19.95 -19.96,-19.95 -11.01,0 -19.95,8.93 -19.95,19.95 0,11.02 8.94,19.95 19.95,19.95 11.03,0 19.96,-8.93 19.96,-19.95"
         style="fill:#fabb1e;fill-opacity:1;fill-rule:nonzero;stroke:none"
         id="path322" /><path
         d="m 3914.74,2083.11 c 0,-11.02 -8.93,-19.95 -19.95,-19.95 -11.02,0 -19.96,8.93 -19.96,19.95 0,11.02 8.94,19.95 19.96,19.95 11.02,0 19.95,-8.93 19.95,-19.95"
         style="fill:#fabb1e;fill-opacity:1;fill-rule:nonzero;stroke:none"
         id="path324" /><path
         d="m 3980.52,2083.11 c 0,-11.02 -8.94,-19.95 -19.95,-19.95 -11.03,0 -19.95,8.93 -19.95,19.95 0,11.02 8.92,19.95 19.95,19.95 11.01,0 19.95,-8.93 19.95,-19.95"
         style="fill:#fabb1e;fill-opacity:1;fill-rule:nonzero;stroke:none"
         id="path326" /><path
         d="m 4046.29,2083.11 c 0,-11.02 -8.94,-19.95 -19.95,-19.95 -11.02,0 -19.95,8.93 -19.95,19.95 0,11.02 8.93,19.95 19.95,19.95 11.01,0 19.95,-8.93 19.95,-19.95"
         style="fill:#fabb1e;fill-opacity:1;fill-rule:nonzero;stroke:none"
         id="path328" /><path
         d="m 3783.19,2023.25 c 0,-11.02 -8.93,-19.95 -19.95,-19.95 -11.02,0 -19.95,8.93 -19.95,19.95 0,11.02 8.93,19.95 19.95,19.95 11.02,0 19.95,-8.93 19.95,-19.95"
         style="fill:#fabb1e;fill-opacity:1;fill-rule:nonzero;stroke:none"
         id="path330" /><path
         d="m 3848.97,2023.25 c 0,-11.02 -8.93,-19.95 -19.96,-19.95 -11.01,0 -19.95,8.93 -19.95,19.95 0,11.02 8.94,19.95 19.95,19.95 11.03,0 19.96,-8.93 19.96,-19.95"
         style="fill:#fabb1e;fill-opacity:1;fill-rule:nonzero;stroke:none"
         id="path332" /><path
         d="m 3914.74,2023.25 c 0,-11.02 -8.93,-19.95 -19.95,-19.95 -11.02,0 -19.96,8.93 -19.96,19.95 0,11.02 8.94,19.95 19.96,19.95 11.02,0 19.95,-8.93 19.95,-19.95"
         style="fill:#fabb1e;fill-opacity:1;fill-rule:nonzero;stroke:none"
         id="path334" /><path
         d="m 3980.52,2023.25 c 0,-11.02 -8.94,-19.95 -19.95,-19.95 -11.03,0 -19.95,8.93 -19.95,19.95 0,11.02 8.92,19.95 19.95,19.95 11.01,0 19.95,-8.93 19.95,-19.95"
         style="fill:#fabb1e;fill-opacity:1;fill-rule:nonzero;stroke:none"
         id="path336" /><path
         d="m 4046.29,2023.25 c 0,-11.02 -8.94,-19.95 -19.95,-19.95 -11.02,0 -19.95,8.93 -19.95,19.95 0,11.02 8.93,19.95 19.95,19.95 11.01,0 19.95,-8.93 19.95,-19.95"
         style="fill:#fabb1e;fill-opacity:1;fill-rule:nonzero;stroke:none"
         id="path338" /><path
         d="m 3783.19,1963.39 c 0,-11.01 -8.93,-19.95 -19.95,-19.95 -11.02,0 -19.95,8.94 -19.95,19.95 0,11.03 8.93,19.96 19.95,19.96 11.02,0 19.95,-8.93 19.95,-19.96"
         style="fill:#fabb1e;fill-opacity:1;fill-rule:nonzero;stroke:none"
         id="path340" /><path
         d="m 3848.97,1963.39 c 0,-11.01 -8.93,-19.95 -19.96,-19.95 -11.01,0 -19.95,8.94 -19.95,19.95 0,11.03 8.94,19.96 19.95,19.96 11.03,0 19.96,-8.93 19.96,-19.96"
         style="fill:#fabb1e;fill-opacity:1;fill-rule:nonzero;stroke:none"
         id="path342" /><path
         d="m 3914.74,1963.39 c 0,-11.01 -8.93,-19.95 -19.95,-19.95 -11.02,0 -19.96,8.94 -19.96,19.95 0,11.03 8.94,19.96 19.96,19.96 11.02,0 19.95,-8.93 19.95,-19.96"
         style="fill:#fabb1e;fill-opacity:1;fill-rule:nonzero;stroke:none"
         id="path344" /><path
         d="m 3980.52,1963.39 c 0,-11.01 -8.94,-19.95 -19.95,-19.95 -11.03,0 -19.95,8.94 -19.95,19.95 0,11.03 8.92,19.96 19.95,19.96 11.01,0 19.95,-8.93 19.95,-19.96"
         style="fill:#fabb1e;fill-opacity:1;fill-rule:nonzero;stroke:none"
         id="path346" /><path
         d="m 4046.29,1963.39 c 0,-11.01 -8.94,-19.95 -19.95,-19.95 -11.02,0 -19.95,8.94 -19.95,19.95 0,11.03 8.93,19.96 19.95,19.96 11.01,0 19.95,-8.93 19.95,-19.96"
         style="fill:#fabb1e;fill-opacity:1;fill-rule:nonzero;stroke:none"
         id="path348" /><path
         d="m 3716.93,1943.44 h -11.49 v 159.62 h 11.49 v -159.62"
         style="fill:#17282f;fill-opacity:1;fill-rule:nonzero;stroke:none"
         id="path350" /><path
         d="M 4077.27,2191.35 H 3045.15 v 238.36 h 1032.12 v -238.36"
         style="fill:#273e47;fill-opacity:1;fill-rule:nonzero;stroke:none"
         id="path352" /><path
         d="m 3676.09,2370.22 h -587.5 v 20.12 h 587.5 v -20.12"
         style="fill:#33535f;fill-opacity:1;fill-rule:nonzero;stroke:none"
         id="path354" /><path
         d="m 3676.09,2335.35 h -587.5 v 20.11 h 587.5 v -20.11"
         style="fill:#33535f;fill-opacity:1;fill-rule:nonzero;stroke:none"
         id="path356" /><path
         d="m 3676.09,2300.47 h -587.5 v 20.12 h 587.5 v -20.12"
         style="fill:#33535f;fill-opacity:1;fill-rule:nonzero;stroke:none"
         id="path358" /><path
         d="m 3676.09,2265.6 h -587.5 v 20.11 h 587.5 v -20.11"
         style="fill:#33535f;fill-opacity:1;fill-rule:nonzero;stroke:none"
         id="path360" /><path
         d="m 3676.09,2230.72 h -587.5 v 20.12 h 587.5 v -20.12"
         style="fill:#33535f;fill-opacity:1;fill-rule:nonzero;stroke:none"
         id="path362" /><path
         d="m 3783.19,2370.39 c 0,-11.02 -8.93,-19.95 -19.95,-19.95 -11.02,0 -19.95,8.93 -19.95,19.95 0,11.02 8.93,19.95 19.95,19.95 11.02,0 19.95,-8.93 19.95,-19.95"
         style="fill:#fabb1e;fill-opacity:1;fill-rule:nonzero;stroke:none"
         id="path364" /><path
         d="m 3848.97,2370.39 c 0,-11.02 -8.93,-19.95 -19.96,-19.95 -11.01,0 -19.95,8.93 -19.95,19.95 0,11.02 8.94,19.95 19.95,19.95 11.03,0 19.96,-8.93 19.96,-19.95"
         style="fill:#fabb1e;fill-opacity:1;fill-rule:nonzero;stroke:none"
         id="path366" /><path
         d="m 3914.74,2370.39 c 0,-11.02 -8.93,-19.95 -19.95,-19.95 -11.02,0 -19.96,8.93 -19.96,19.95 0,11.02 8.94,19.95 19.96,19.95 11.02,0 19.95,-8.93 19.95,-19.95"
         style="fill:#fabb1e;fill-opacity:1;fill-rule:nonzero;stroke:none"
         id="path368" /><path
         d="m 3980.52,2370.39 c 0,-11.02 -8.94,-19.95 -19.95,-19.95 -11.03,0 -19.95,8.93 -19.95,19.95 0,11.02 8.92,19.95 19.95,19.95 11.01,0 19.95,-8.93 19.95,-19.95"
         style="fill:#fabb1e;fill-opacity:1;fill-rule:nonzero;stroke:none"
         id="path370" /><path
         d="m 4046.29,2370.39 c 0,-11.02 -8.94,-19.95 -19.95,-19.95 -11.02,0 -19.95,8.93 -19.95,19.95 0,11.02 8.93,19.95 19.95,19.95 11.01,0 19.95,-8.93 19.95,-19.95"
         style="fill:#fabb1e;fill-opacity:1;fill-rule:nonzero;stroke:none"
         id="path372" /><path
         d="m 3783.19,2310.53 c 0,-11.02 -8.93,-19.95 -19.95,-19.95 -11.02,0 -19.95,8.93 -19.95,19.95 0,11.02 8.93,19.95 19.95,19.95 11.02,0 19.95,-8.93 19.95,-19.95"
         style="fill:#fabb1e;fill-opacity:1;fill-rule:nonzero;stroke:none"
         id="path374" /><path
         d="m 3848.97,2310.53 c 0,-11.02 -8.93,-19.95 -19.96,-19.95 -11.01,0 -19.95,8.93 -19.95,19.95 0,11.02 8.94,19.95 19.95,19.95 11.03,0 19.96,-8.93 19.96,-19.95"
         style="fill:#fabb1e;fill-opacity:1;fill-rule:nonzero;stroke:none"
         id="path376" /><path
         d="m 3914.74,2310.53 c 0,-11.02 -8.93,-19.95 -19.95,-19.95 -11.02,0 -19.96,8.93 -19.96,19.95 0,11.02 8.94,19.95 19.96,19.95 11.02,0 19.95,-8.93 19.95,-19.95"
         style="fill:#fabb1e;fill-opacity:1;fill-rule:nonzero;stroke:none"
         id="path378" /><path
         d="m 3980.52,2310.53 c 0,-11.02 -8.94,-19.95 -19.95,-19.95 -11.03,0 -19.95,8.93 -19.95,19.95 0,11.02 8.92,19.95 19.95,19.95 11.01,0 19.95,-8.93 19.95,-19.95"
         style="fill:#fabb1e;fill-opacity:1;fill-rule:nonzero;stroke:none"
         id="path380" /><path
         d="m 4046.29,2310.53 c 0,-11.02 -8.94,-19.95 -19.95,-19.95 -11.02,0 -19.95,8.93 -19.95,19.95 0,11.02 8.93,19.95 19.95,19.95 11.01,0 19.95,-8.93 19.95,-19.95"
         style="fill:#fabb1e;fill-opacity:1;fill-rule:nonzero;stroke:none"
         id="path382" /><path
         d="m 3783.19,2250.67 c 0,-11.02 -8.93,-19.95 -19.95,-19.95 -11.02,0 -19.95,8.93 -19.95,19.95 0,11.02 8.93,19.96 19.95,19.96 11.02,0 19.95,-8.94 19.95,-19.96"
         style="fill:#fabb1e;fill-opacity:1;fill-rule:nonzero;stroke:none"
         id="path384" /><path
         d="m 3848.97,2250.67 c 0,-11.02 -8.93,-19.95 -19.96,-19.95 -11.01,0 -19.95,8.93 -19.95,19.95 0,11.02 8.94,19.96 19.95,19.96 11.03,0 19.96,-8.94 19.96,-19.96"
         style="fill:#fabb1e;fill-opacity:1;fill-rule:nonzero;stroke:none"
         id="path386" /><path
         d="m 3914.74,2250.67 c 0,-11.02 -8.93,-19.95 -19.95,-19.95 -11.02,0 -19.96,8.93 -19.96,19.95 0,11.02 8.94,19.96 19.96,19.96 11.02,0 19.95,-8.94 19.95,-19.96"
         style="fill:#fabb1e;fill-opacity:1;fill-rule:nonzero;stroke:none"
         id="path388" /><path
         d="m 3980.52,2250.67 c 0,-11.02 -8.94,-19.95 -19.95,-19.95 -11.03,0 -19.95,8.93 -19.95,19.95 0,11.02 8.92,19.96 19.95,19.96 11.01,0 19.95,-8.94 19.95,-19.96"
         style="fill:#fabb1e;fill-opacity:1;fill-rule:nonzero;stroke:none"
         id="path390" /><path
         d="m 4046.29,2250.67 c 0,-11.02 -8.94,-19.95 -19.95,-19.95 -11.02,0 -19.95,8.93 -19.95,19.95 0,11.02 8.93,19.96 19.95,19.96 11.01,0 19.95,-8.94 19.95,-19.96"
         style="fill:#fabb1e;fill-opacity:1;fill-rule:nonzero;stroke:none"
         id="path392" /><path
         d="m 3716.93,2230.72 h -11.49 v 159.62 h 11.49 v -159.62"
         style="fill:#17282f;fill-opacity:1;fill-rule:nonzero;stroke:none"
         id="path394" /><path
         d="M 4077.27,2478.63 H 3045.15 v 238.35 h 1032.12 v -238.35"
         style="fill:#273e47;fill-opacity:1;fill-rule:nonzero;stroke:none"
         id="path396" /><path
         d="m 3676.09,2657.5 h -587.5 v 20.11 h 587.5 v -20.11"
         style="fill:#33535f;fill-opacity:1;fill-rule:nonzero;stroke:none"
         id="path398" /><path
         d="m 3676.09,2622.62 h -587.5 v 20.12 h 587.5 v -20.12"
         style="fill:#33535f;fill-opacity:1;fill-rule:nonzero;stroke:none"
         id="path400" /><path
         d="m 3676.09,2587.75 h -587.5 v 20.12 h 587.5 v -20.12"
         style="fill:#33535f;fill-opacity:1;fill-rule:nonzero;stroke:none"
         id="path402" /><path
         d="m 3676.09,2552.87 h -587.5 v 20.12 h 587.5 v -20.12"
         style="fill:#33535f;fill-opacity:1;fill-rule:nonzero;stroke:none"
         id="path404" /><path
         d="m 3676.09,2518 h -587.5 v 20.12 h 587.5 V 2518"
         style="fill:#33535f;fill-opacity:1;fill-rule:nonzero;stroke:none"
         id="path406" /><path
         d="m 3783.19,2657.66 c 0,-11.02 -8.93,-19.95 -19.95,-19.95 -11.02,0 -19.95,8.93 -19.95,19.95 0,11.02 8.93,19.95 19.95,19.95 11.02,0 19.95,-8.93 19.95,-19.95"
         style="fill:#fabb1e;fill-opacity:1;fill-rule:nonzero;stroke:none"
         id="path408" /><path
         d="m 3848.97,2657.66 c 0,-11.02 -8.93,-19.95 -19.96,-19.95 -11.01,0 -19.95,8.93 -19.95,19.95 0,11.02 8.94,19.95 19.95,19.95 11.03,0 19.96,-8.93 19.96,-19.95"
         style="fill:#fabb1e;fill-opacity:1;fill-rule:nonzero;stroke:none"
         id="path410" /><path
         d="m 3914.74,2657.66 c 0,-11.02 -8.93,-19.95 -19.95,-19.95 -11.02,0 -19.96,8.93 -19.96,19.95 0,11.02 8.94,19.95 19.96,19.95 11.02,0 19.95,-8.93 19.95,-19.95"
         style="fill:#fabb1e;fill-opacity:1;fill-rule:nonzero;stroke:none"
         id="path412" /><path
         d="m 3980.52,2657.66 c 0,-11.02 -8.94,-19.95 -19.95,-19.95 -11.03,0 -19.95,8.93 -19.95,19.95 0,11.02 8.92,19.95 19.95,19.95 11.01,0 19.95,-8.93 19.95,-19.95"
         style="fill:#fabb1e;fill-opacity:1;fill-rule:nonzero;stroke:none"
         id="path414" /><path
         d="m 4046.29,2657.66 c 0,-11.02 -8.94,-19.95 -19.95,-19.95 -11.02,0 -19.95,8.93 -19.95,19.95 0,11.02 8.93,19.95 19.95,19.95 11.01,0 19.95,-8.93 19.95,-19.95"
         style="fill:#fabb1e;fill-opacity:1;fill-rule:nonzero;stroke:none"
         id="path416" /><path
         d="m 3783.19,2597.81 c 0,-11.02 -8.93,-19.95 -19.95,-19.95 -11.02,0 -19.95,8.93 -19.95,19.95 0,11.01 8.93,19.95 19.95,19.95 11.02,0 19.95,-8.94 19.95,-19.95"
         style="fill:#fabb1e;fill-opacity:1;fill-rule:nonzero;stroke:none"
         id="path418" /><path
         d="m 3848.97,2597.81 c 0,-11.02 -8.93,-19.95 -19.96,-19.95 -11.01,0 -19.95,8.93 -19.95,19.95 0,11.01 8.94,19.95 19.95,19.95 11.03,0 19.96,-8.94 19.96,-19.95"
         style="fill:#fabb1e;fill-opacity:1;fill-rule:nonzero;stroke:none"
         id="path420" /><path
         d="m 3914.74,2597.81 c 0,-11.02 -8.93,-19.95 -19.95,-19.95 -11.02,0 -19.96,8.93 -19.96,19.95 0,11.01 8.94,19.95 19.96,19.95 11.02,0 19.95,-8.94 19.95,-19.95"
         style="fill:#fabb1e;fill-opacity:1;fill-rule:nonzero;stroke:none"
         id="path422" /><path
         d="m 3980.52,2597.81 c 0,-11.02 -8.94,-19.95 -19.95,-19.95 -11.03,0 -19.95,8.93 -19.95,19.95 0,11.01 8.92,19.95 19.95,19.95 11.01,0 19.95,-8.94 19.95,-19.95"
         style="fill:#fabb1e;fill-opacity:1;fill-rule:nonzero;stroke:none"
         id="path424" /><path
         d="m 4046.29,2597.81 c 0,-11.02 -8.94,-19.95 -19.95,-19.95 -11.02,0 -19.95,8.93 -19.95,19.95 0,11.01 8.93,19.95 19.95,19.95 11.01,0 19.95,-8.94 19.95,-19.95"
         style="fill:#fabb1e;fill-opacity:1;fill-rule:nonzero;stroke:none"
         id="path426" /><path
         d="m 3783.19,2537.95 c 0,-11.02 -8.93,-19.95 -19.95,-19.95 -11.02,0 -19.95,8.93 -19.95,19.95 0,11.02 8.93,19.95 19.95,19.95 11.02,0 19.95,-8.93 19.95,-19.95"
         style="fill:#fabb1e;fill-opacity:1;fill-rule:nonzero;stroke:none"
         id="path428" /><path
         d="m 3848.97,2537.95 c 0,-11.02 -8.93,-19.95 -19.96,-19.95 -11.01,0 -19.95,8.93 -19.95,19.95 0,11.02 8.94,19.95 19.95,19.95 11.03,0 19.96,-8.93 19.96,-19.95"
         style="fill:#fabb1e;fill-opacity:1;fill-rule:nonzero;stroke:none"
         id="path430" /><path
         d="m 3914.74,2537.95 c 0,-11.02 -8.93,-19.95 -19.95,-19.95 -11.02,0 -19.96,8.93 -19.96,19.95 0,11.02 8.94,19.95 19.96,19.95 11.02,0 19.95,-8.93 19.95,-19.95"
         style="fill:#fabb1e;fill-opacity:1;fill-rule:nonzero;stroke:none"
         id="path432" /><path
         d="m 3980.52,2537.95 c 0,-11.02 -8.94,-19.95 -19.95,-19.95 -11.03,0 -19.95,8.93 -19.95,19.95 0,11.02 8.92,19.95 19.95,19.95 11.01,0 19.95,-8.93 19.95,-19.95"
         style="fill:#fabb1e;fill-opacity:1;fill-rule:nonzero;stroke:none"
         id="path434" /><path
         d="m 4046.29,2537.95 c 0,-11.02 -8.94,-19.95 -19.95,-19.95 -11.02,0 -19.95,8.93 -19.95,19.95 0,11.02 8.93,19.95 19.95,19.95 11.01,0 19.95,-8.93 19.95,-19.95"
         style="fill:#fabb1e;fill-opacity:1;fill-rule:nonzero;stroke:none"
         id="path436" /><path
         d="m 3716.93,2518 h -11.49 v 159.61 h 11.49 V 2518"
         style="fill:#17282f;fill-opacity:1;fill-rule:nonzero;stroke:none"
         id="path438" /><path
         d="M 3908.89,2839.78 H 2548.37 v 75.59 h 1360.52 v -75.59"
         style="fill:#273e47;fill-opacity:1;fill-rule:nonzero;stroke:none"
         id="path440" /><path
         d="M 2562.03,611.371 H 2410.1 v 151.93 h 151.93 v -151.93"
         style="fill:#17282f;fill-opacity:1;fill-rule:nonzero;stroke:none"
         id="path442" /><path
         d="m 261.508,2336.93 v 143.92 h 22.707 v -143.92 h -22.707"
         style="fill:#17282f;fill-opacity:1;fill-rule:nonzero;stroke:none"
         id="path444" /><path
         d="m 339.348,2438.28 v -101.35 h -22.707 v 143.92 h 17.836 l 82.3,-103.78 v 103.58 h 22.903 v -143.72 h -18.848 l -81.484,101.35"
         style="fill:#17282f;fill-opacity:1;fill-rule:nonzero;stroke:none"
         id="path446" /><path
         d="m 577.719,2460.78 h -47.84 v -123.85 h -22.902 v 123.85 h -48.039 v 20.07 h 118.781 v -20.07"
         style="fill:#17282f;fill-opacity:1;fill-rule:nonzero;stroke:none"
         id="path448" /><path
         d="m 695.688,2357 v -20.07 h -98.715 v 143.92 h 96.894 v -20.07 H 619.68 v -40.95 h 64.25 v -18.85 H 619.68 V 2357 h 76.008"
         style="fill:#17282f;fill-opacity:1;fill-rule:nonzero;stroke:none"
         id="path450" /><path
         d="m 741.906,2407.07 h 39.727 c 3.242,0 6.18,0.71 8.816,2.12 2.637,1.42 4.899,3.38 6.789,5.88 1.895,2.5 3.379,5.37 4.457,8.62 1.082,3.24 1.621,6.69 1.621,10.33 0,3.66 -0.64,7.1 -1.925,10.35 -1.282,3.24 -2.973,6.07 -5.063,8.51 -2.098,2.43 -4.531,4.35 -7.301,5.77 -2.765,1.42 -5.644,2.13 -8.613,2.13 h -38.508 z m -22.707,-70.14 v 143.92 h 62.637 c 6.484,0 12.465,-1.36 17.934,-4.06 5.48,-2.7 10.168,-6.25 14.089,-10.64 3.918,-4.39 6.996,-9.39 9.223,-15 2.231,-5.61 3.348,-11.32 3.348,-17.13 0,-4.86 -0.684,-9.52 -2.032,-13.98 -1.351,-4.46 -3.242,-8.58 -5.671,-12.37 -2.434,-3.78 -5.411,-7.06 -8.922,-9.83 -3.512,-2.77 -7.367,-4.83 -11.551,-6.18 l 33.851,-54.73 H 806.363 L 775.141,2387 h -33.235 v -50.07 h -22.707"
         style="fill:#17282f;fill-opacity:1;fill-rule:nonzero;stroke:none"
         id="path452" /><path
         d="m 875.883,2438.28 v -101.35 h -22.699 v 143.92 h 17.836 l 82.296,-103.78 v 103.58 h 22.907 v -143.72 h -18.856 l -81.484,101.35"
         style="fill:#17282f;fill-opacity:1;fill-rule:nonzero;stroke:none"
         id="path454" /><path
         d="m 1084.05,2392.88 -23.1,61.82 -23.92,-61.82 z m -33.03,87.97 h 19.86 l 56.76,-143.92 h -23.92 l -15.2,39.12 h -55.54 l -15.01,-39.12 h -24.118 l 57.168,143.92"
         style="fill:#17282f;fill-opacity:1;fill-rule:nonzero;stroke:none"
         id="path456" /><path
         d="m 1145.47,2336.93 v 143.92 h 22.7 V 2357 h 77.24 v -20.07 h -99.94"
         style="fill:#17282f;fill-opacity:1;fill-rule:nonzero;stroke:none"
         id="path458" /><path
         d="m 1393.57,2447 c -1.35,1.48 -3.31,3.07 -5.88,4.76 -2.56,1.69 -5.57,3.27 -9.02,4.77 -3.44,1.48 -7.22,2.7 -11.35,3.64 -4.12,0.95 -8.34,1.42 -12.66,1.42 -9.6,0 -16.66,-1.76 -21.19,-5.27 -4.52,-3.51 -6.79,-8.38 -6.79,-14.59 0,-3.52 0.71,-6.39 2.13,-8.62 1.42,-2.23 3.62,-4.18 6.59,-5.88 2.97,-1.69 6.69,-3.17 11.15,-4.46 4.46,-1.28 9.66,-2.67 15.6,-4.15 7.3,-1.76 13.89,-3.72 19.77,-5.88 5.88,-2.16 10.84,-4.8 14.9,-7.9 4.05,-3.12 7.19,-6.93 9.42,-11.46 2.23,-4.53 3.35,-10.03 3.35,-16.52 0,-7.29 -1.39,-13.58 -4.16,-18.85 -2.77,-5.27 -6.55,-9.56 -11.35,-12.87 -4.8,-3.31 -10.37,-5.74 -16.73,-7.3 -6.34,-1.55 -13.16,-2.33 -20.46,-2.33 -10.95,0 -21.53,1.65 -31.73,4.97 -10.2,3.3 -19.43,8.14 -27.67,14.5 l 10.34,19.45 c 1.76,-1.75 4.29,-3.72 7.61,-5.87 3.3,-2.17 7.15,-4.16 11.54,-5.99 4.4,-1.82 9.16,-3.38 14.29,-4.66 5.14,-1.28 10.48,-1.93 16.02,-1.93 8.92,0 15.81,1.55 20.68,4.67 4.86,3.11 7.29,7.7 7.29,13.78 0,3.65 -0.91,6.69 -2.74,9.13 -1.82,2.43 -4.42,4.56 -7.8,6.38 -3.38,1.82 -7.5,3.48 -12.36,4.96 -4.87,1.49 -10.41,3.04 -16.62,4.67 -7.17,1.89 -13.42,3.88 -18.76,5.97 -5.33,2.1 -9.76,4.64 -13.27,7.61 -3.51,2.97 -6.18,6.45 -8.01,10.43 -1.82,3.99 -2.73,8.82 -2.73,14.5 0,7.03 1.35,13.27 4.05,18.75 2.7,5.47 6.38,10.07 11.05,13.79 4.66,3.71 10.16,6.51 16.52,8.4 6.35,1.89 13.24,2.84 20.67,2.84 9.74,0 18.72,-1.56 26.96,-4.66 8.24,-3.11 15.47,-6.97 21.69,-11.55 L 1393.57,2447"
         style="fill:#17282f;fill-opacity:1;fill-rule:nonzero;stroke:none"
         id="path460" /><path
         d="m 1531,2357 v -20.07 h -98.71 v 143.92 h 96.89 v -20.07 h -74.19 v -40.95 h 64.25 v -18.85 h -64.25 V 2357 H 1531"
         style="fill:#17282f;fill-opacity:1;fill-rule:nonzero;stroke:none"
         id="path462" /><path
         d="m 1577.22,2407.07 h 39.72 c 3.25,0 6.19,0.71 8.82,2.12 2.64,1.42 4.9,3.38 6.79,5.88 1.89,2.5 3.38,5.37 4.46,8.62 1.09,3.24 1.62,6.69 1.62,10.33 0,3.66 -0.64,7.1 -1.93,10.35 -1.27,3.24 -2.97,6.07 -5.06,8.51 -2.09,2.43 -4.53,4.35 -7.29,5.77 -2.78,1.42 -5.65,2.13 -8.62,2.13 h -38.51 z m -22.71,-70.14 v 143.92 h 62.64 c 6.48,0 12.46,-1.36 17.93,-4.06 5.48,-2.7 10.17,-6.25 14.1,-10.64 3.91,-4.39 6.99,-9.39 9.21,-15 2.24,-5.61 3.35,-11.32 3.35,-17.13 0,-4.86 -0.68,-9.52 -2.03,-13.98 -1.35,-4.46 -3.24,-8.58 -5.67,-12.37 -2.43,-3.78 -5.41,-7.06 -8.92,-9.83 -3.51,-2.77 -7.37,-4.83 -11.55,-6.18 l 33.85,-54.73 h -25.74 l -31.23,50.07 h -33.23 v -50.07 h -22.71"
         style="fill:#17282f;fill-opacity:1;fill-rule:nonzero;stroke:none"
         id="path464" /><path
         d="m 1694.18,2480.85 43.37,-115.34 43.18,115.34 h 24.12 l -57.57,-143.92 h -19.46 l -57.77,143.92 h 24.13"
         style="fill:#17282f;fill-opacity:1;fill-rule:nonzero;stroke:none"
         id="path466" /><path
         d="m 1921.19,2357 v -20.07 h -98.71 v 143.92 h 96.89 v -20.07 h -74.18 v -40.95 h 64.25 v -18.85 h -64.25 V 2357 h 76"
         style="fill:#17282f;fill-opacity:1;fill-rule:nonzero;stroke:none"
         id="path468" /><path
         d="m 1967.41,2407.07 h 39.72 c 3.25,0 6.19,0.71 8.83,2.12 2.63,1.42 4.89,3.38 6.78,5.88 1.89,2.5 3.38,5.37 4.46,8.62 1.09,3.24 1.62,6.69 1.62,10.33 0,3.66 -0.64,7.1 -1.92,10.35 -1.28,3.24 -2.97,6.07 -5.06,8.51 -2.1,2.43 -4.53,4.35 -7.3,5.77 -2.77,1.42 -5.65,2.13 -8.62,2.13 h -38.51 z m -22.7,-70.14 v 143.92 h 62.63 c 6.49,0 12.47,-1.36 17.94,-4.06 5.47,-2.7 10.17,-6.25 14.09,-10.64 3.91,-4.39 6.99,-9.39 9.22,-15 2.23,-5.61 3.34,-11.32 3.34,-17.13 0,-4.86 -0.67,-9.52 -2.02,-13.98 -1.35,-4.46 -3.25,-8.58 -5.68,-12.37 -2.43,-3.78 -5.41,-7.06 -8.92,-9.83 -3.51,-2.77 -7.37,-4.83 -11.55,-6.18 l 33.85,-54.73 h -25.74 l -31.22,50.07 h -33.24 v -50.07 h -22.7"
         style="fill:#17282f;fill-opacity:1;fill-rule:nonzero;stroke:none"
         id="path470" /><path
         d="m 952.258,2145.08 v -29.19 H 851.109 v 143.92 h 99.325 v -29.19 h -66.079 v -27.98 h 56.754 v -26.95 h -56.754 v -30.61 h 67.903"
         style="fill:#17282f;fill-opacity:1;fill-rule:nonzero;stroke:none"
         id="path472" /><path
         d="m 1005.77,2191.29 h 30.4 c 3.92,0 7.3,1.86 10.14,5.58 2.84,3.71 4.26,8.48 4.26,14.29 0,5.94 -1.62,10.67 -4.87,14.19 -3.24,3.51 -6.76,5.27 -10.54,5.27 h -29.39 z m -33.247,-75.4 v 143.92 h 64.867 c 6.76,0 13.01,-1.43 18.75,-4.26 5.74,-2.84 10.71,-6.56 14.9,-11.15 4.19,-4.59 7.46,-9.8 9.83,-15.61 2.36,-5.81 3.54,-11.69 3.54,-17.63 0,-4.47 -0.54,-8.75 -1.62,-12.87 -1.08,-4.13 -2.63,-8.01 -4.65,-11.66 -2.04,-3.65 -4.5,-6.92 -7.41,-9.83 -2.9,-2.91 -6.18,-5.37 -9.83,-7.4 l 31.62,-53.51 h -37.5 l -27.56,46.42 h -21.69 v -46.42 h -33.247"
         style="fill:#17282f;fill-opacity:1;fill-rule:nonzero;stroke:none"
         id="path474" /><path
         d="m 1141.58,2191.29 h 30.4 c 3.92,0 7.3,1.86 10.14,5.58 2.84,3.71 4.26,8.48 4.26,14.29 0,5.94 -1.62,10.67 -4.87,14.19 -3.24,3.51 -6.76,5.27 -10.54,5.27 h -29.39 z m -33.24,-75.4 v 143.92 h 64.86 c 6.76,0 13.01,-1.43 18.75,-4.26 5.74,-2.84 10.71,-6.56 14.9,-11.15 4.19,-4.59 7.46,-9.8 9.83,-15.61 2.36,-5.81 3.55,-11.69 3.55,-17.63 0,-4.47 -0.55,-8.75 -1.63,-12.87 -1.08,-4.13 -2.63,-8.01 -4.65,-11.66 -2.04,-3.65 -4.5,-6.92 -7.41,-9.83 -2.9,-2.91 -6.18,-5.37 -9.83,-7.4 l 31.63,-53.51 h -37.5 l -27.57,46.42 h -21.69 v -46.42 h -33.24"
         style="fill:#17282f;fill-opacity:1;fill-rule:nonzero;stroke:none"
         id="path476" /><path
         d="m 1269.68,2187.65 c 0,-5.55 0.81,-10.92 2.43,-16.12 1.63,-5.21 4.02,-9.83 7.2,-13.88 3.18,-4.06 7.13,-7.3 11.86,-9.73 4.73,-2.44 10.13,-3.65 16.21,-3.65 6.36,0 11.89,1.28 16.63,3.85 4.73,2.56 8.64,5.91 11.75,10.03 3.11,4.12 5.44,8.79 7,13.99 1.55,5.2 2.33,10.51 2.33,15.91 0,5.54 -0.81,10.91 -2.43,16.12 -1.62,5.2 -4.06,9.79 -7.3,13.78 -3.25,3.98 -7.2,7.16 -11.86,9.53 -4.66,2.36 -10.03,3.54 -16.12,3.54 -6.35,0 -11.85,-1.25 -16.52,-3.75 -4.66,-2.5 -8.58,-5.78 -11.75,-9.83 -3.18,-4.05 -5.54,-8.68 -7.09,-13.88 -1.56,-5.21 -2.34,-10.51 -2.34,-15.91 z m 37.5,-72.98 c -10.68,0 -20.4,2.09 -29.19,6.29 -8.78,4.18 -16.28,9.69 -22.5,16.52 -6.21,6.82 -11.04,14.62 -14.49,23.41 -3.44,8.78 -5.17,17.84 -5.17,27.16 0,9.46 1.79,18.58 5.38,27.36 3.57,8.78 8.58,16.52 14.99,23.21 6.42,6.69 14.02,12.03 22.81,16.01 8.78,3.99 18.38,5.99 28.78,5.99 10.67,0 20.4,-2.1 29.19,-6.29 8.78,-4.19 16.28,-9.73 22.5,-16.61 6.21,-6.9 11.01,-14.74 14.39,-23.52 3.38,-8.78 5.07,-17.71 5.07,-26.76 0,-9.46 -1.8,-18.58 -5.37,-27.36 -3.58,-8.79 -8.55,-16.52 -14.9,-23.21 -6.36,-6.69 -13.92,-12.06 -22.7,-16.12 -8.79,-4.05 -18.38,-6.08 -28.79,-6.08"
         style="fill:#17282f;fill-opacity:1;fill-rule:nonzero;stroke:none"
         id="path478" /><path
         d="m 1431.44,2191.29 h 30.4 c 3.92,0 7.3,1.86 10.13,5.58 2.84,3.71 4.26,8.48 4.26,14.29 0,5.94 -1.62,10.67 -4.86,14.19 -3.25,3.51 -6.77,5.27 -10.54,5.27 h -29.39 z m -33.25,-75.4 v 143.92 h 64.86 c 6.76,0 13.01,-1.43 18.76,-4.26 5.74,-2.84 10.7,-6.56 14.89,-11.15 4.19,-4.59 7.47,-9.8 9.83,-15.61 2.37,-5.81 3.55,-11.69 3.55,-17.63 0,-4.47 -0.54,-8.75 -1.62,-12.87 -1.08,-4.13 -2.63,-8.01 -4.66,-11.66 -2.03,-3.65 -4.5,-6.92 -7.4,-9.83 -2.91,-2.91 -6.18,-5.37 -9.83,-7.4 l 31.62,-53.51 h -37.5 l -27.56,46.42 h -21.69 v -46.42 h -33.25"
         style="fill:#17282f;fill-opacity:1;fill-rule:nonzero;stroke:none"
         id="path480" /><path
         d="m 458.688,3471.21 v -222.1 c 15.464,22.01 37.25,39.07 65.394,51.19 14.902,6.05 32.297,9.08 52.164,9.08 68.426,0 118.934,-23.94 151.5,-71.83 28.152,-41.28 42.227,-99.64 42.227,-175.04 v -222.93 c 0,-76.52 -24.235,-139.27 -72.664,-188.25 -46.235,-47.35 -104.59,-71.01 -175.043,-71.01 -68.258,0 -124.961,24.76 -170.086,74.3 -43.489,47.34 -65.227,105.14 -65.227,173.4 v 24.76 l 149.445,11.57 3.309,-35.51 c 3.844,-41.28 20.641,-68.81 50.363,-82.57 8.797,-4.4 18.164,-6.6 28.071,-6.6 63.847,0 95.781,33.3 95.781,99.91 v 253.48 c 0,30.26 -11.074,55.31 -33.215,75.13 -10.512,9.35 -25.18,14.04 -43.988,14.04 -27.676,0 -48.149,-10.73 -61.422,-32.2 -11.074,-18.72 -16.609,-38.54 -16.609,-59.45 v -28.07 H 302.637 v 565.58 h 456.601 v -156.88 h -300.55"
         style="fill:#fabb1e;fill-opacity:1;fill-rule:nonzero;stroke:none"
         id="path482" /><path
         d="m 1233.98,3396.07 c 0,24.78 -8.8,45.96 -26.42,63.58 -17.62,17.62 -38.8,26.42 -63.58,26.42 -24.76,0 -45.82,-8.8 -63.16,-26.42 -17.34,-17.62 -26.01,-38.8 -26.01,-63.58 v -565.58 c 0,-24.77 8.67,-45.96 26.01,-63.58 17.34,-17.62 38.4,-26.42 63.16,-26.42 24.78,0 45.96,8.8 63.58,26.42 17.62,17.62 26.42,38.81 26.42,63.58 z m 161.84,-568.05 c 0,-68.82 -24.23,-127.16 -72.67,-175.05 -48.44,-47.89 -106.5,-71.83 -174.21,-71.83 -68.82,0 -127.29,24.08 -175.46,72.25 -48.171,48.15 -72.246,106.37 -72.246,174.63 v 564.76 c 0,68.8 24.219,127.28 72.664,175.44 48.432,48.17 106.772,72.25 175.042,72.25 68.8,0 127.15,-24.22 175.04,-72.65 47.89,-48.44 71.84,-106.8 71.84,-175.04 v -564.76"
         style="fill:#fabb1e;fill-opacity:1;fill-rule:nonzero;stroke:none"
         id="path484" /><path
         d="m 1863.13,3396.07 c 0,24.78 -8.81,45.96 -26.43,63.58 -17.62,17.62 -38.8,26.42 -63.57,26.42 -24.77,0 -45.82,-8.8 -63.16,-26.42 -17.35,-17.62 -26.01,-38.8 -26.01,-63.58 v -565.58 c 0,-24.77 8.66,-45.96 26.01,-63.58 17.34,-17.62 38.39,-26.42 63.16,-26.42 24.77,0 45.95,8.8 63.57,26.42 17.62,17.62 26.43,38.81 26.43,63.58 z m 161.83,-568.05 c 0,-68.82 -24.23,-127.16 -72.66,-175.05 -48.45,-47.89 -106.51,-71.83 -174.21,-71.83 -68.82,0 -127.3,24.08 -175.46,72.25 -48.18,48.15 -72.25,106.37 -72.25,174.63 v 564.76 c 0,68.8 24.22,127.28 72.66,175.44 48.43,48.17 106.78,72.25 175.05,72.25 68.8,0 127.14,-24.22 175.04,-72.65 47.88,-48.44 71.83,-106.8 71.83,-175.04 v -564.76"
         style="fill:#fabb1e;fill-opacity:1;fill-rule:nonzero;stroke:none"
         id="path486" /><path
         d="M 331.605,801.059 H 66.0547 V 1066.61 H 331.605 V 801.059"
         style="fill:#273e47;fill-opacity:1;fill-rule:nonzero;stroke:none"
         id="path488" /><path
         d="m 287.523,933.828 c 0,-48.976 -39.71,-88.699 -88.695,-88.699 -48.984,0 -88.695,39.723 -88.695,88.699 0,48.992 39.711,88.692 88.695,88.692 48.985,0 88.695,-39.7 88.695,-88.692"
         style="fill:#33535f;fill-opacity:1;fill-rule:nonzero;stroke:none"
         id="path490" /><path
         d="m 182.594,896.5 h -19.953 v 73.148 h 19.953 V 896.5"
         style="fill:#17282f;fill-opacity:1;fill-rule:nonzero;stroke:none"
         id="path492" /><path
         d="m 238.188,896.5 h -19.954 v 73.148 h 19.954 V 896.5"
         style="fill:#17282f;fill-opacity:1;fill-rule:nonzero;stroke:none"
         id="path494" /><path
         d="m 0,388.059 532.867,2.421 532.873,0.891 1065.74,1.668 1065.74,-1.66 532.86,-0.879 532.87,-2.441 -532.87,-2.45 -532.86,-0.879 -1065.74,-1.66 -1065.74,1.668 -532.873,0.891 L 0,388.059"
         style="fill:#17282f;fill-opacity:1;fill-rule:nonzero;stroke:none"
         id="path496" /><path
         d="M 912.32,638.742 C 921.992,617.59 883.848,465.68 871.879,434.512 859.91,403.332 817.992,229.199 797.566,221.68 c -20.421,-7.532 -119.308,-5.391 -133.289,0 -13.968,5.371 0,35.082 16.129,45.48 16.121,10.399 35.321,26.36 35.321,26.36 0,0 -28.875,268.902 -23.5,299 5.375,30.089 194.035,103.191 220.093,46.222"
         style="fill:#fabb1e;fill-opacity:1;fill-rule:nonzero;stroke:none"
         id="path498" /><path
         d="m 735.609,216.801 c -9.734,0 -19.566,0.187 -28.722,0.539 0.027,0.051 0.051,0.101 0.074,0.16 1.668,4.582 2.93,9.301 5.062,13.699 2.118,4.352 4.485,8.539 6.942,12.711 2.426,4.121 5.195,8.059 8.461,11.559 1.679,1.812 3.469,3.543 5.215,5.281 1.734,1.719 3.73,3.078 5.5,4.738 l -0.649,1.184 c -5.054,-0.934 -10.125,-3.84 -14.176,-6.883 -4.351,-3.258 -8.179,-7.141 -11.386,-11.527 -3.172,-4.364 -5.367,-9.621 -6.457,-14.883 -1.075,-5.188 -1.703,-10.617 -0.461,-15.84 0.008,-0.039 0.023,-0.09 0.039,-0.129 -10.125,0.41 -19.348,1.02 -26.582,1.781 -3.203,9.368 -0.785,19.938 3.84,28.43 4.664,8.57 11.855,15.34 19.144,21.668 l -0.738,1.012 c -9.863,-4.449 -18.945,-11.371 -24.156,-21.082 -5.028,-9.367 -5.047,-21.008 0.91,-29.918 -6.235,0.679 -10.875,1.48 -13.192,2.379 -4.039,1.55 -5.742,5.14 -5.734,9.699 0.023,11.23 10.398,28.391 21.863,35.781 16.121,10.399 35.321,26.36 35.321,26.36 v 0 0 c 0,0 -16.352,152.261 -22.153,240.46 0.012,-0.019 0.02,-0.039 0.031,-0.05 1.715,-26.141 4.36,-57.899 7.25,-89.66 L 836.754,315.672 c 1.141,3.75 2.273,7.519 3.402,11.297 0.012,-0.008 0.024,-0.028 0.039,-0.047 C 825.031,275.77 808.32,225.629 797.566,221.68 c -9.378,-3.461 -35.304,-4.879 -61.957,-4.879"
         style="fill:#f4ac12;fill-opacity:1;fill-rule:nonzero;stroke:none"
         id="path500" /><path
         d="m 705.941,216.801 c -0.375,0 -0.738,0.199 -0.89,0.609 0.609,-0.019 1.219,-0.051 1.836,-0.07 -0.199,-0.352 -0.578,-0.539 -0.946,-0.539"
         style="fill:#cccdcb;fill-opacity:1;fill-rule:nonzero;stroke:none"
         id="path502" /><path
         d="m 706.887,217.34 c -0.617,0.019 -1.227,0.051 -1.836,0.07 -0.016,0.039 -0.031,0.09 -0.039,0.129 -1.242,5.223 -0.614,10.652 0.461,15.84 1.09,5.262 3.285,10.519 6.457,14.883 3.207,4.386 7.035,8.269 11.386,11.527 4.051,3.043 9.122,5.949 14.176,6.883 l 0.649,-1.184 c -1.77,-1.66 -3.766,-3.019 -5.5,-4.738 -1.746,-1.738 -3.536,-3.469 -5.215,-5.281 -3.266,-3.5 -6.035,-7.438 -8.461,-11.559 -2.457,-4.172 -4.824,-8.359 -6.942,-12.711 -2.132,-4.398 -3.394,-9.117 -5.062,-13.699 -0.023,-0.059 -0.047,-0.109 -0.074,-0.16"
         style="fill:#d79b14;fill-opacity:1;fill-rule:nonzero;stroke:none"
         id="path504" /><path
         d="m 677.793,218.82 c -0.109,0.16 -0.219,0.321 -0.324,0.481 0.328,-0.039 0.664,-0.071 1,-0.11 0.008,-0.031 0.019,-0.062 0.027,-0.082 l -0.703,-0.289"
         style="fill:#cccdcb;fill-opacity:1;fill-rule:nonzero;stroke:none"
         id="path506" /><path
         d="m 678.469,219.191 c -0.336,0.039 -0.672,0.071 -1,0.11 -5.957,8.91 -5.938,20.551 -0.91,29.918 5.211,9.711 14.293,16.633 24.156,21.082 l 0.738,-1.012 c -7.289,-6.328 -14.48,-13.098 -19.144,-21.668 -4.625,-8.492 -7.043,-19.062 -3.84,-28.43"
         style="fill:#d79b14;fill-opacity:1;fill-rule:nonzero;stroke:none"
         id="path508" /><path
         d="M 836.754,315.672 700.855,444.27 c -2.89,31.761 -5.535,63.519 -7.25,89.66 39.188,-63.16 97.844,-147.121 146.551,-206.961 -1.129,-3.778 -2.261,-7.547 -3.402,-11.297"
         style="fill:#d79b14;fill-opacity:1;fill-rule:nonzero;stroke:none"
         id="path510" /><path
         d="m 1425.54,486.762 c 5.51,-5.223 58.99,45.386 67.2,69.097 8.22,23.711 -26.01,90.61 -19.68,101.993 6.33,11.359 35.48,20.519 50.59,3.007 15.11,-17.488 53.87,-113.418 45.79,-154.429 -8.07,-41 -90.6,-132.61 -99.22,-132.141 -8.62,0.473 -44.68,112.473 -44.68,112.473"
         style="fill:#fabb1e;fill-opacity:1;fill-rule:nonzero;stroke:none"
         id="path512" /><path
         d="m 1502.6,404.359 c -0.42,18.461 -2.68,38.211 -7.11,59.161 -1.83,8.699 -7.03,19.242 -14.6,30.96 -4.61,7.149 -10.1,14.731 -16.24,22.602 3.48,3.668 6.89,7.469 10.08,11.25 l 74.91,-63.191 c -13.5,-20.903 -31.51,-43.403 -47.04,-60.782"
         style="fill:#f4ac12;fill-opacity:1;fill-rule:nonzero;stroke:none"
         id="path514" /><path
         d="M 1123.36,949.379 H 679.324 c 0,0 -32.961,-292.367 -29.379,-331.07 3.586,-38.688 198.746,-325.411 259.27,-362.411 61.41,-37.539 408.285,-38.796 492.895,-20.179 65.79,14.472 120.7,98.441 93.38,227.801 -11.93,56.539 -166.07,191.339 -187.56,217.14 -21.5,25.789 -184.57,268.719 -184.57,268.719"
         style="fill:#bebfbd;fill-opacity:1;fill-rule:nonzero;stroke:none"
         id="path516" /><path
         d="m 649.957,618.281 c 3.598,-38.699 198.695,-325.41 259.297,-362.41 61.402,-37.492 408.206,-38.789 492.896,-20.199 65.71,14.5 120.71,98.508 93.3,227.898 -11.89,56.5 -166,191.301 -187.49,217.102 -13.2,15.797 -79.4,113 -128.8,186.008 -31.3,46.191 -55.81,82.691 -55.81,82.691 H 679.355 c 0,0 -8.3,-73.402 -16.101,-151.5 -7.801,-77.801 -15.102,-160.301 -13.297,-179.59"
         style="fill:#fabb1e;fill-opacity:1;fill-rule:nonzero;stroke:none"
         id="path518" /><path
         d="m 834.75,772.27 c -54.277,0 -112.078,7.269 -171.496,25.601 2.699,27.051 5.465,53.527 7.922,76.598 30.816,-24.418 91.922,-62.699 165.539,-67.77 7.785,-0.539 15.676,-0.789 23.621,-0.789 13.148,0 26.445,0.68 39.652,1.86 2.285,-10.2 4.532,-20.649 6.758,-31.321 -23.148,-2.668 -47.211,-4.179 -71.996,-4.179 m 91.863,6.781 c -2.187,10.488 -4.402,20.801 -6.66,30.879 29.297,3.679 57.52,9.422 81.937,15.16 40.82,9.59 71.02,19.18 77.95,19.18 0.02,0 0.04,0 0.06,0 0.4,0 0.79,0 1.19,0 31.02,0 64.7,10.96 94.57,27.562 1.16,-1.703 2.32,-3.422 3.5,-5.152 -39.35,-22.789 -132.4,-70.039 -252.547,-87.629"
         style="fill:#f4ac12;fill-opacity:1;fill-rule:nonzero;stroke:none"
         id="path520" /><path
         d="m 1410.58,477.629 c 0,0 -122.24,76.672 -207.93,62.812 -85.69,-13.851 -115.93,-189.832 -74.88,-288.839 0,0 -78.19,-23.231 -78.19,-61.012 0,-21.508 44.66,-28.371 109.14,-26.84 64.47,1.52 192.56,2.82 195.4,19.012 2.84,16.199 -8.44,38.508 -8.44,38.508 0,0 115.66,13.031 138.36,89.652 22.7,76.629 -54.17,153.707 -73.46,166.707"
         style="fill:#fabb1e;fill-opacity:1;fill-rule:nonzero;stroke:none"
         id="path522" /><path
         d="m 1346.67,219.18 c -0.15,0.34 -0.29,0.64 -0.41,0.89 0.1,0 0.21,-0.011 0.31,-0.019 l 0.1,-0.871"
         style="fill:#cccdcb;fill-opacity:1;fill-rule:nonzero;stroke:none"
         id="path524" /><path
         d="m 1329.42,217.84 c -30.26,0 -59.59,8.898 -86.09,24.23 l 0.39,0.852 c 32.28,-13.883 67.57,-20.57 102.54,-22.852 0.12,-0.25 0.26,-0.55 0.41,-0.89 l 0.04,-0.371 c -5.79,-0.649 -11.56,-0.969 -17.29,-0.969"
         style="fill:#f4ac12;fill-opacity:1;fill-rule:nonzero;stroke:none"
         id="path526" /><path
         d="m 1101.51,161.512 c -0.95,0 -1.89,0.648 -1.65,1.777 0.16,0.703 0.33,1.402 0.53,2.102 1.54,-0.161 3.11,-0.313 4.7,-0.45 -0.73,-0.929 -1.47,-1.859 -2.2,-2.812 -0.33,-0.418 -0.86,-0.617 -1.38,-0.617"
         style="fill:#cccdcb;fill-opacity:1;fill-rule:nonzero;stroke:none"
         id="path528" /><path
         d="m 1105.09,164.941 c -1.59,0.137 -3.16,0.289 -4.7,0.45 3.79,13.64 14.69,24.48 26.09,32.32 6.95,4.781 14.61,8.629 22.6,11.371 9.15,3.117 18.64,4.797 27.84,7.68 l 0.54,-1.141 c -7.94,-2.672 -15.62,-6.711 -23.02,-10.601 -7.42,-3.911 -14.7,-8.161 -21.64,-12.879 -10.99,-7.461 -19.56,-16.93 -27.71,-27.2"
         style="fill:#f4ac12;fill-opacity:1;fill-rule:nonzero;stroke:none"
         id="path530" /><path
         d="m 1062.24,169.859 c -0.52,0 -0.99,0.321 -0.91,1.012 0.14,1.238 0.32,2.469 0.54,3.68 0.7,-0.36 1.43,-0.711 2.19,-1.051 0.13,-0.219 0.25,-0.441 0.38,-0.66 -0.37,-0.758 -0.73,-1.531 -1.07,-2.301 -0.2,-0.437 -0.68,-0.68 -1.13,-0.68"
         style="fill:#cccdcb;fill-opacity:1;fill-rule:nonzero;stroke:none"
         id="path532" /><path
         d="m 1064.06,173.5 c -0.76,0.34 -1.49,0.691 -2.19,1.051 0.12,0.711 0.27,1.41 0.42,2.121 0.59,-1.07 1.18,-2.121 1.77,-3.172 m 12.01,18.43 c -1.18,2.25 -2.35,4.519 -3.51,6.832 10.16,13.468 25.97,22.687 43.13,25.199 l 0.31,-1.231 c -15.86,-5.832 -29.56,-17.14 -39.93,-30.8"
         style="fill:#f4ac12;fill-opacity:1;fill-rule:nonzero;stroke:none"
         id="path534" /><path
         d="m 1078.03,228.992 -0.48,0.477 c 13.6,12.211 26.21,18.402 47.9,22.801 -14.3,26.011 -20.3,55.699 -21.09,85.3 -0.2,6.301 -0.11,12.5 0.2,18.801 v 0.199 c 0,4.7 0.2,9.5 0.4,14.211 1.7,40.989 11.29,81.989 30.69,118.801 10.1,17.887 23,35.488 42,46.387 14.52,7.941 30.58,10.672 46.42,10.672 5.1,0 10.19,-0.282 15.18,-0.77 41.21,-4.402 79.91,-19.5 115.6,-38.699 -0.48,0.207 -0.96,0.406 -1.44,0.609 -36.69,16.789 -85.41,34.34 -128.79,34.34 -7.51,0 -14.87,-0.531 -21.97,-1.68 -85.69,-13.851 -115.93,-189.832 -74.88,-288.839 0,0 -0.86,-0.262 -2.39,-0.762 -6.47,-1.918 -12.76,-4.371 -18.52,-6.93 -8.85,-3.73 -19.29,-8.75 -28.83,-14.918"
         style="fill:#f4ac12;fill-opacity:1;fill-rule:nonzero;stroke:none"
         id="path536" /><path
         d="m 1078.06,228.969 -0.03,0.023 c 9.54,6.168 19.98,11.188 28.83,14.918 -15.56,-6.922 -27.36,-14.648 -28.8,-14.941 m 54.49,11.703 c -2.3,3.398 -4.39,6.898 -6.4,10.398 -0.26,-0.082 -0.52,-0.148 -0.77,-0.23 1.53,0.5 2.39,0.762 2.39,0.762 -41.05,99.007 -10.81,274.988 74.88,288.839 7.1,1.149 14.46,1.68 21.97,1.68 43.38,0 92.1,-17.551 128.79,-34.34 -18.24,7.649 -36.85,14.43 -55.76,19.59 -19.29,5.598 -39.09,9.899 -59,10.91 -2.87,0.11 -5.75,0.18 -8.64,0.18 -16.87,0 -33.86,-2.281 -47.86,-10.391 -16.4,-9.601 -28.39,-26.199 -37.7,-43.398 -15.29,-27.703 -24.4,-58.602 -28.99,-90.203 v -0.289 c -1.9,-17.899 -3.31,-36.11 -3.2,-54.11 0.09,-33.898 6.19,-68.3 21.39,-98.789 l -1.1,-0.609"
         style="fill:#f4ac12;fill-opacity:1;fill-rule:nonzero;stroke:none"
         id="path538" /><path
         d="m 1055.8,601.109 c 9.67,-21.14 -28.47,-173.058 -40.44,-204.23 -11.97,-31.168 -53.883,-205.297 -74.309,-212.828 -20.426,-7.52 -119.317,-5.371 -133.285,0 -13.977,5.379 0,35.09 16.121,45.5 16.125,10.398 35.328,26.347 35.328,26.347 0,0 -28.875,268.891 -23.504,298.993 5.375,30.101 194.029,103.191 220.089,46.218"
         style="fill:#fabb1e;fill-opacity:1;fill-rule:nonzero;stroke:none"
         id="path540" /><path
         d="m 965.566,228.121 c -0.531,0 -1.035,0.32 -1.164,0.879 1.141,3.191 2.289,6.5 3.446,9.898 1.031,-0.179 2.074,-0.347 3.125,-0.519 -1.364,-3.16 -2.762,-6.32 -4.203,-9.457 -0.258,-0.551 -0.739,-0.801 -1.204,-0.801"
         style="fill:#cccdcb;fill-opacity:1;fill-rule:nonzero;stroke:none"
         id="path542" /><path
         d="m 970.973,238.379 c -1.051,0.172 -2.094,0.34 -3.125,0.519 9.562,28.141 19.519,62.684 28.058,92.692 1.68,4.512 3.403,8.992 5.134,13.469 1.01,-3.879 2.03,-7.758 3.06,-11.61 -0.65,-2.32 -1.32,-4.64 -2,-6.949 0.91,1.449 1.78,2.922 2.7,4.371 0.45,-1.672 0.89,-3.312 1.35,-4.98 -2.76,-4.879 -5.67,-9.7 -8.673,-14.45 l -0.391,-1.293 c -8.055,-24.226 -16.039,-48.328 -26.113,-71.769 m 48.927,113.242 c -0.25,0.981 -0.5,1.949 -0.75,2.93 0.57,1.379 1.06,2.781 1.47,4.219 0.13,0.429 0.47,0.609 0.82,0.609 0.54,0 1.12,-0.449 0.93,-1.129 -0.63,-2.301 -1.49,-4.488 -2.47,-6.629 m -5.15,20.578 c -0.42,1.711 -0.85,3.461 -1.27,5.192 2.01,5.441 3.96,10.91 5.79,16.398 0.14,0.43 0.49,0.609 0.84,0.609 0.56,0 1.12,-0.449 0.91,-1.109 -2.23,-6.988 -4.29,-14.027 -6.27,-21.09"
         style="fill:#f4ac12;fill-opacity:1;fill-rule:nonzero;stroke:none"
         id="path544" /><path
         d="m 964.402,229 c -0.043,0.18 -0.043,0.391 0.008,0.609 6.344,28.2 15.606,55.43 24.727,82.903 2.125,6.398 4.406,12.758 6.769,19.078 -8.539,-30.008 -18.496,-64.551 -28.058,-92.692 -1.157,-3.398 -2.305,-6.707 -3.446,-9.898"
         style="fill:#f4ac12;fill-opacity:1;fill-rule:nonzero;stroke:none"
         id="path546" /><path
         d="m 847.457,307.699 c -0.746,4.313 -1.445,8.621 -2.109,12.942 2.761,-3.34 5.488,-6.602 8.168,-9.77 0.086,-0.82 0.168,-1.633 0.25,-2.441 -2.094,-0.239 -4.227,-0.489 -6.309,-0.731"
         style="fill:#e0e1de;fill-opacity:1;fill-rule:nonzero;stroke:none"
         id="path548" /><path
         d="m 858.93,258.559 c -0.442,0.171 -0.801,0.5 -0.938,0.992 -4.34,15.898 -7.742,31.98 -10.535,48.148 2.082,0.242 4.215,0.492 6.309,0.731 2.504,-24.75 4.461,-43.25 5.164,-49.871"
         style="fill:#cccdcb;fill-opacity:1;fill-rule:nonzero;stroke:none"
         id="path550" /><path
         d="m 853.516,310.871 c -2.68,3.168 -5.407,6.43 -8.168,9.77 -3.258,21.179 -5.637,42.5 -7.883,63.738 -2.188,20.762 -3.504,41.601 -4.504,62.43 -1.047,21.613 -2.281,43.523 -1.027,65.132 l 1.214,0.118 c 2.883,-20.387 4.122,-41.008 6.18,-61.477 1.66,-16.551 3.606,-33.082 5.488,-49.613 2.957,-32.379 6.106,-64.41 8.7,-90.098"
         style="fill:#f4ac12;fill-opacity:1;fill-rule:nonzero;stroke:none"
         id="path552" /><path
         d="m 859.781,258.398 c -0.293,0 -0.586,0.051 -0.851,0.161 -0.703,6.621 -2.66,25.121 -5.164,49.871 -0.082,0.808 -0.164,1.621 -0.25,2.441 -2.594,25.688 -5.743,57.719 -8.7,90.098 0.539,-4.727 1.075,-9.457 1.594,-14.188 4.664,-42.332 11.746,-84.472 15.125,-126.883 0.078,-0.976 -0.832,-1.5 -1.754,-1.5"
         style="fill:#f4ac12;fill-opacity:1;fill-rule:nonzero;stroke:none"
         id="path554" /><path
         d="m 844.594,181.289 c -0.414,0 -0.817,0.242 -0.938,0.75 -1.234,5.211 -0.605,10.641 0.473,15.84 1.086,5.25 3.277,10.512 6.453,14.871 3.207,4.391 7.035,8.27 11.387,11.531 4.051,3.039 9.117,5.949 14.176,6.879 l 0.64,-1.18 c -1.762,-1.648 -3.762,-3.019 -5.492,-4.738 -1.746,-1.742 -3.535,-3.472 -5.215,-5.273 -3.269,-3.508 -6.031,-7.449 -8.465,-11.571 -2.457,-4.168 -4.824,-8.359 -6.937,-12.707 -2.141,-4.402 -3.395,-9.121 -5.071,-13.703 -0.164,-0.449 -0.593,-0.699 -1.011,-0.699"
         style="fill:#f4ac12;fill-opacity:1;fill-rule:nonzero;stroke:none"
         id="path556" /><path
         d="m 816.445,183.32 c -6.277,8.961 -6.351,20.86 -1.234,30.399 5.203,9.703 14.285,16.621 24.156,21.07 l 0.742,-1.008 c -7.293,-6.32 -14.488,-13.101 -19.144,-21.672 -4.641,-8.507 -7.063,-19.121 -3.82,-28.507 l -0.7,-0.282"
         style="fill:#f4ac12;fill-opacity:1;fill-rule:nonzero;stroke:none"
         id="path558" /><path
         d="m 849.242,1355.91 c 4.801,17.53 -38.953,79.58 -55.648,100.45 -16.696,20.87 -108.641,52.19 -137.996,36.13 -11.532,-6.31 -32.946,-50.46 -61.852,-88.83 -44.726,-59.36 -97.016,-121.64 -78.019,-138.4 46.101,-40.68 151.121,23.48 185.207,45.04 34.086,21.56 65.254,47.77 73.554,46.85 10.957,-1.22 34.039,-18.57 43.242,-19.6 21.915,-2.43 31.512,18.36 31.512,18.36"
         style="fill:#fabb1e;fill-opacity:1;fill-rule:nonzero;stroke:none"
         id="path560" /><path
         d="m 555.668,1252.03 c -15.398,0 -29.258,3.8 -39.941,13.23 -2.747,2.42 -4,5.79 -4.008,9.97 -0.031,24.73 43.765,77.65 82.027,128.43 28.906,38.37 50.32,82.52 61.852,88.83 5.636,3.08 13.578,4.42 22.855,4.42 39.035,0 101.652,-23.69 115.141,-40.55 3.027,-3.78 6.941,-8.92 11.297,-14.89 -30.055,-6.62 -56.036,-16.83 -73.68,-30.9 -17.727,-14.14 -54.691,-67.12 -90.106,-133.96 -27.535,-13.22 -58.804,-24.58 -85.437,-24.58"
         style="fill:#f4ac12;fill-opacity:1;fill-rule:nonzero;stroke:none"
         id="path562" /><path
         d="m 1061.01,1418.06 c 107.27,-64.14 154.89,-234.82 157.78,-262.06 2.37,-22.25 53.52,-100.97 44.38,-185.668 -5.87,-54.492 -103.66,-126.781 -183.27,-126.062 -6.79,0.07 -37.06,-9.559 -78.01,-19.18 -47.378,-11.129 -109.058,-22.27 -165.175,-18.391 -104.61,7.211 -183.949,81.449 -187.035,87.762 -3.082,6.309 -87.899,18.551 -93.231,106.019 -8.504,139.65 133.996,377.57 174.762,410.09 67.477,53.82 256.914,51.07 329.799,7.49"
         style="fill:#fabb1e;fill-opacity:1;fill-rule:nonzero;stroke:none"
         id="path564" /><path
         d="m 1010.5,1344.45 c -2.07,18.99 53.65,76.1 74.44,94.99 20.79,18.89 121.42,36.1 149.21,14.55 10.91,-8.46 25.8,-57.84 49.42,-102.45 36.54,-69.03 80.45,-142.35 57.95,-156.59 -54.59,-34.56 -152.91,49.48 -184.7,77.52 -31.78,28.03 -59.77,60.42 -68.54,60.84 -5.8,0.28 -15.45,-3.15 -24.85,-6.57 -9.34,-3.41 -18.43,-6.81 -23.28,-6.58 -23.14,1.12 -29.65,24.29 -29.65,24.29"
         style="fill:#fabb1e;fill-opacity:1;fill-rule:nonzero;stroke:none"
         id="path566" /><path
         d="m 1311.23,1186.74 c -38.24,0 -85.01,30.03 -118.91,56.23 -14.94,11.54 -27.39,22.34 -35.5,29.5 -31.78,28.03 -59.77,60.42 -68.54,60.84 -0.23,0.01 -0.46,0.01 -0.7,0.01 -5.86,0 -15.12,-3.29 -24.15,-6.58 -9.03,-3.3 -17.84,-6.59 -22.79,-6.59 -0.17,0 -0.33,0 -0.49,0.01 -23.14,1.12 -29.65,24.29 -29.65,24.29 -0.04,0.35 -0.05,0.72 -0.05,1.09 0.04,20.01 54.09,75.36 74.49,93.9 13.93,12.65 63.69,24.55 103.37,24.55 19.56,0 36.67,-2.88 45.84,-10 10.91,-8.46 25.8,-57.84 49.42,-102.45 29.62,-55.96 64.08,-114.73 64.09,-142.57 0.01,-6.51 -1.87,-11.33 -6.14,-14.02 -9.06,-5.74 -19.33,-8.21 -30.29,-8.21"
         style="fill:#f4ac12;fill-opacity:1;fill-rule:nonzero;stroke:none"
         id="path568" /><path
         d="m 831.086,830.582 c -11.035,0 -22.301,0.918 -33.664,2.918 -65.719,11.57 -108.285,42.262 -125.246,75.699 21.269,36.192 45.363,62.231 71.14,76.231 6.747,-6.121 14.872,-12.18 20.598,-12.18 1.219,0 2.328,0.281 3.293,0.891 3.719,2.339 9.488,11.871 15.301,22.98 1.719,0.098 3.441,0.16 5.172,0.16 3.015,0 6.05,-0.16 9.09,-0.492 4.574,-0.488 8.953,-1.539 13.168,-3.129 3.996,-16.129 9.878,-30.48 18.238,-31.371 0.656,-0.07 1.332,-0.098 2.015,-0.098 4.172,0 8.856,1.239 13.649,3.207 20.074,-27.707 35.187,-71.796 48.484,-125.117 -18.554,-6.082 -39.406,-9.699 -61.238,-9.699 m 79.922,16.977 c -13.391,52.722 -28.899,97.179 -49.824,127.339 11.14,7.352 19.867,15.161 19.867,15.161 v 0 0 l -78.86,54.741 -53.425,-35.15 c -30.618,-12.138 -59.196,-38.431 -84.286,-76.56 -0.464,3.308 -0.679,6.601 -0.64,9.859 0.398,35.903 34.246,66.991 37.984,76.461 3.731,9.44 52.356,85.29 112.031,85.29 0.215,0 0.426,-0.01 0.641,-0.01 65.82,-0.59 95.77,-71.07 103.719,-89.43 7.941,-18.362 48.519,-60.408 49.59,-104.311 0.558,-23.078 -22.25,-47.59 -56.797,-63.39 M 805.602,1015.65 c -2.196,0.44 -4.426,0.78 -6.704,1.03 -2.183,0.23 -4.359,0.4 -6.531,0.5 5.856,12.51 10.246,22.84 10.246,22.84 0,0 0.86,-10.81 2.989,-24.37"
         style="fill:#f4ac12;fill-opacity:1;fill-rule:nonzero;stroke:none"
         id="path570" /><path
         d="m 976.277,842.871 c 11.059,7.367 19.688,17.141 23.481,28.68 3.952,11.461 3.712,24.09 1.642,36.398 -1.896,12.403 -5.873,24.602 -10.17,36.742 -4.539,12.059 -9.457,24.137 -14.953,36.18 8.758,-9.973 16.161,-21.133 22.086,-33.09 5.957,-11.949 10.607,-24.722 12.907,-38.222 2.08,-13.387 1.96,-28.079 -4.3,-40.989 -3,-6.41 -7.49,-12.039 -12.775,-16.468 -5.543,-4.153 -11.562,-7.313 -17.918,-9.231"
         style="fill:#f4ac12;fill-opacity:1;fill-rule:nonzero;stroke:none"
         id="path572" /><path
         d="m 644.863,915.66 c -6.23,6.449 -11.269,14.981 -12.445,24.649 -1.234,9.589 0.742,19.371 4.449,28.07 3.832,8.711 9.446,16.281 15.887,22.812 6.457,6.5 13.734,12.159 22.039,15.979 -5.711,-7.06 -11.102,-13.951 -16.086,-20.971 -4.84,-7.097 -9.551,-14.199 -12.695,-21.847 -3.356,-7.543 -5.34,-15.43 -5.801,-23.582 -0.348,-8.25 1.914,-16.348 4.652,-25.11"
         style="fill:#f4ac12;fill-opacity:1;fill-rule:nonzero;stroke:none"
         id="path574" /><path
         d="m 1702.9,65.4102 c -107.76,0 -226.64,1.8203 -346.11,4.0507 -61.6,1.1407 -110.26,2.0508 -140.63,2.0508 -155.25,0 -199.93,199.5583 -243.14,392.5473 -6.028,26.89 -12.055,53.82 -18.375,80.261 -12.336,51.61 -22.516,103.789 -32.364,154.25 C 891.832,854.629 865.527,989.422 796.77,996.789 705.91,1006.46 624.996,870.57 595.461,658.461 l -19.805,2.758 c 31.137,223.57 120.785,366.561 223.242,355.461 83.438,-8.95 111.043,-150.438 143.012,-314.282 9.809,-50.257 19.949,-102.226 32.188,-153.429 6.343,-26.528 12.39,-53.547 18.437,-80.547 43.405,-193.82 84.395,-376.9103 223.625,-376.9103 30.56,0 79.3,-0.9101 141,-2.0508 135.18,-2.5312 320.31,-5.9726 477.04,-2.8906 254.17,4.9688 284.25,25.0387 287.42,31.0707 -0.15,41.609 -268.42,91.679 -369.41,110.531 -102.09,19.047 -106.08,19.797 -104.92,32.328 1.04,11.238 13.53,11.238 32.44,11.238 h 419.43 c 131.55,0 173.95,189.262 199.28,302.344 7.26,32.438 13.01,58.066 19.34,71.277 29.4,61.243 103.76,52.289 106.91,51.891 l -2.58,-19.82 c -2.59,0.3 -63.22,7.379 -86.3,-40.731 -5.35,-11.148 -11.15,-37.027 -17.86,-67 -26.64,-118.91 -71.22,-317.961 -218.79,-317.961 h -364.19 c 6.81,-1.277 13.83,-2.578 20.9,-3.898 244.22,-45.59 385.61,-81.621 385.61,-130.918 0,-3.621 -1.12,-9.031 -6.47,-14.274 C 2105.25,73.4297 1928.56,65.4102 1702.9,65.4102"
         style="fill:#17282f;fill-opacity:1;fill-rule:nonzero;stroke:none"
         id="path576" /><path
         d="m 644.66,599.43 -122.609,7.34 4.406,73.531 122.606,-7.352 -4.403,-73.519"
         style="fill:#33535f;fill-opacity:1;fill-rule:nonzero;stroke:none"
         id="path578" /><path
         d="m 626.008,674.34 -76.492,4.582 1.398,23.316 76.488,-4.578 -1.394,-23.32"
         style="fill:#273e47;fill-opacity:1;fill-rule:nonzero;stroke:none"
         id="path580" /><path
         d="m 559.301,548.23 -14.422,0.872 3.359,56.097 14.422,-0.859 -3.359,-56.11"
         style="fill:#fabb1e;fill-opacity:1;fill-rule:nonzero;stroke:none"
         id="path582" /><path
         d="m 614.797,544.91 -14.426,0.871 3.359,56.098 14.426,-0.867 -3.359,-56.102"
         style="fill:#fabb1e;fill-opacity:1;fill-rule:nonzero;stroke:none"
         id="path584" /><path
         d="M 2515.66,748.75 V 625.922 H 2462 V 748.75 h 53.66"
         style="fill:#33535f;fill-opacity:1;fill-rule:nonzero;stroke:none"
         id="path586" /><path
         d="M 2462,725.648 V 649.02 h -43.36 v 76.628 H 2462"
         style="fill:#273e47;fill-opacity:1;fill-rule:nonzero;stroke:none"
         id="path588" /><path
         d="m 730.996,997.961 c 0,0 26.098,-30.191 36.211,-23.82 10.117,6.371 35.406,65.879 35.406,65.879 0,0 6.028,-75.649 25.563,-77.731 19.535,-2.078 52.875,27.77 52.875,27.77 l -78.86,54.741 -71.195,-46.839"
         style="fill:#fabb1e;fill-opacity:1;fill-rule:nonzero;stroke:none"
         id="path590" /><path
         d="m 830.191,962.191 c -0.683,0 -1.359,0.028 -2.015,0.098 -19.535,2.082 -25.563,77.731 -25.563,77.731 0,0 -25.289,-59.508 -35.406,-65.879 -0.965,-0.61 -2.074,-0.891 -3.293,-0.891 -5.726,0 -13.851,6.059 -20.598,12.18 -6.878,6.242 -12.32,12.531 -12.32,12.531 l 71.195,46.839 78.86,-54.741 c 0,0 -8.727,-7.809 -19.867,-15.161 -5.454,-3.597 -11.481,-7.089 -17.344,-9.5 -4.793,-1.968 -9.477,-3.207 -13.649,-3.207"
         style="fill:#f4ac12;fill-opacity:1;fill-rule:nonzero;stroke:none"
         id="path592" /><path
         d="m 1117.97,1091.86 c 0,25.08 -1.56,49.73 -6.45,73.17 -2.69,11.64 -5.83,23.06 -10.95,33.34 -4.85,10.34 -11.17,19.78 -19.41,26.96 -1.96,1.9 -4.14,3.53 -6.31,5.18 -2.25,1.58 -4.77,2.91 -7.12,4.41 l -3.56,2.23 -3.84,1.7 c -2.6,1.07 -5.05,2.49 -7.74,3.31 -10.54,4.17 -22.07,5.44 -33.73,6.04 -1.16,0.03 -2.31,0.04 -3.47,0.04 -22.39,0 -45.367,-5.22 -67.792,-13.19 19.965,15.34 44.488,25.57 70.772,27.88 3.36,0.31 6.76,0.47 10.17,0.47 9.89,0 19.92,-1.35 29.63,-4.24 3.33,-0.75 6.38,-2.38 9.57,-3.56 l 4.75,-1.94 4.45,-2.52 c 2.94,-1.76 5.94,-3.36 8.79,-5.31 2.81,-2.08 5.63,-4.14 8.15,-6.57 5.13,-4.72 9.64,-10.06 13.41,-15.79 3.85,-5.67 7.13,-11.67 9.59,-17.92 4.98,-12.47 8.01,-25.37 9.15,-38.27 2.43,-25.75 -0.33,-51.43 -8.06,-75.42"
         style="fill:#f4ac12;fill-opacity:1;fill-rule:nonzero;stroke:none"
         id="path594" /><path
         d="m 630.203,1142.94 c -5.84,20.76 -6.996,42.89 -3.371,64.84 1.852,10.97 5.106,21.96 10.512,32.26 5.375,10.26 12.906,19.95 22.633,27.11 4.75,3.76 10.074,6.58 15.586,9.07 5.878,2.54 12.031,3.83 18.015,4.4 2.293,0.19 4.559,0.28 6.809,0.28 9.554,0 18.715,-1.63 27.402,-4.11 5.375,-1.54 10.586,-3.39 15.684,-5.41 5.058,-2.17 9.98,-4.53 14.8,-7.04 9.52,-5.24 18.715,-10.99 26.879,-18.13 -20.461,6.59 -40.621,12.6 -60.578,15.66 -6.109,0.82 -12.191,1.36 -18.082,1.36 -3.703,0 -7.332,-0.21 -10.836,-0.71 -4.531,-0.63 -8.793,-1.84 -12.644,-3.52 -4.074,-1.96 -8.172,-4.15 -11.797,-6.91 -14.852,-10.78 -24.453,-28.41 -30.496,-47.62 -5.949,-19.36 -8.918,-40.16 -10.516,-61.53"
         style="fill:#f4ac12;fill-opacity:1;fill-rule:nonzero;stroke:none"
         id="path596" /><path
         d="m 955.117,1123.28 c 0.309,1.14 2.524,-1.55 2.434,-2.78 -2.371,-30.12 0.488,-65.04 29.988,-76.35 0.918,-0.36 0.746,-1.87 -0.351,-1.68 -36.329,6.28 -39.606,52.65 -32.071,80.81"
         style="fill:#17282f;fill-opacity:1;fill-rule:nonzero;stroke:none"
         id="path598" /><path
         d="m 986.039,1153.5 c 53.381,1.38 53.311,-96.14 3.856,-97.41 -48.668,-1.25 -48.594,96.27 -3.856,97.41"
         style="fill:#17282f;fill-opacity:1;fill-rule:nonzero;stroke:none"
         id="path600" /><path
         d="m 748.82,1146.94 c -0.148,1.17 -2.715,-1.17 -2.8,-2.41 -1.848,-30.17 -9.543,-64.34 -40.34,-71.44 -0.953,-0.21 -1,-1.74 0.117,-1.7 36.844,1.15 46.558,46.61 43.023,75.55"
         style="fill:#17282f;fill-opacity:1;fill-rule:nonzero;stroke:none"
         id="path602" /><path
         d="m 722.414,1181.18 c -52.672,8.8 -66.191,-87.78 -17.394,-95.93 48.011,-8.02 61.539,88.55 17.394,95.93"
         style="fill:#17282f;fill-opacity:1;fill-rule:nonzero;stroke:none"
         id="path604" /><path
         d="m 800.621,1042.76 c 9.453,-3.09 75.34,17.76 70.328,37.72 -5.426,21.61 -98.066,26.69 -109.715,12.67 -11.632,-14.03 29.469,-47.16 39.387,-50.39"
         style="fill:#17282f;fill-opacity:1;fill-rule:nonzero;stroke:none"
         id="path606" /><path
         d="m 882.75,991.129 c -10.598,-7.688 -21.488,-15.231 -33.52,-20.949 -5.859,-2.801 -12.55,-5.309 -18.179,-5.188 -3.774,-0.762 -6.965,4.43 -9.133,9.278 -4.359,10 -6.457,21.05 -8.387,31.94 -1.953,10.91 -3.105,22.03 -4.23,32.98 l -3.125,30.41 -9.106,-29.55 c -2.797,-9.08 -6.093,-18.21 -9.394,-27.23 -3.473,-8.99 -7.106,-17.992 -11.774,-26.422 -1.175,-2.097 -2.464,-4.136 -3.894,-6.019 -1.379,-1.867 -2.988,-3.75 -4.594,-4.758 -1.125,-0.883 -3.172,-0.93 -5.555,-0.59 -2.332,0.649 -4.836,1.571 -7.136,2.957 -9.309,5.532 -16.817,13.453 -23.785,21.301 4.863,-8.809 10.699,-17.437 20.07,-24.648 2.308,-1.821 5.246,-3.36 8.656,-4.539 1.899,-0.372 3.734,-0.942 5.914,-0.77 1.938,-0.141 4.75,0.547 6.367,1.457 3.438,1.801 5.438,3.922 7.395,6.012 1.887,2.129 3.508,4.289 4.996,6.48 5.988,8.731 10.305,17.779 14.312,26.879 4.071,9.11 7.383,18.3 10.493,27.67 l -12.231,0.87 c 0.746,-11.37 2.485,-22.52 4.606,-33.75 1.043,-5.618 2.507,-11.2 4.183,-16.778 1.762,-5.57 3.571,-11.16 6.641,-16.672 1.558,-2.75 3.219,-5.512 5.894,-8.199 1.411,-1.332 2.973,-2.692 5.383,-3.762 1.192,-0.551 2.528,-0.98 4.11,-1.148 1.613,-0.282 2.425,-0.02 3.675,-0.039 9.141,0.718 15.543,4.339 21.578,7.75 11.75,7.25 21.391,15.82 29.77,25.027"
         style="fill:#17282f;fill-opacity:1;fill-rule:nonzero;stroke:none"
         id="path608" /><path
         d="m 380.492,645.031 c 19.969,1.61 39.781,0.93 59.559,-0.301 19.758,-1.441 39.48,-3.46 59.047,-7.769 -19.973,-1.609 -39.782,-0.941 -59.555,0.301 -19.762,1.468 -39.484,3.488 -59.051,7.769"
         style="fill:#17282f;fill-opacity:1;fill-rule:nonzero;stroke:none"
         id="path610" /><path
         d="m 668.324,581.781 c 19,-6.281 36.981,-14.582 54.703,-23.383 17.629,-9.007 34.996,-18.519 51.328,-30.066 -19.003,6.258 -36.98,14.559 -54.703,23.367 -17.617,9.031 -34.984,18.539 -51.328,30.082"
         style="fill:#17282f;fill-opacity:1;fill-rule:nonzero;stroke:none"
         id="path612" /><path
         d="m 443.977,444.281 c 9.55,17.617 20.918,33.86 32.726,49.77 11.992,15.769 24.442,31.199 38.723,45.25 -9.535,-17.61 -20.91,-33.86 -32.731,-49.75 -12.007,-15.781 -24.453,-31.199 -38.718,-45.27"
         style="fill:#17282f;fill-opacity:1;fill-rule:nonzero;stroke:none"
         id="path614" /><path
         d="m 331.605,763.332 c 15.426,-4.934 30.536,-10.602 45.586,-16.391 15.094,-5.711 29.95,-11.961 44.805,-18.211 14.785,-6.429 29.567,-12.859 44.121,-19.832 14.582,-6.886 29.117,-13.886 43.321,-21.668 -15.43,4.899 -30.532,10.59 -45.59,16.372 -15.086,5.718 -29.946,11.968 -44.801,18.23 -14.777,6.43 -29.563,12.859 -44.109,19.84 -14.586,6.879 -29.122,13.887 -43.333,21.66"
         style="fill:#17282f;fill-opacity:1;fill-rule:nonzero;stroke:none"
         id="path616" /><path
         d="m 682.754,674.629 c 13.961,7.383 28.586,12.57 43.375,17.242 14.851,4.449 29.879,8.359 45.57,10.078 -13.953,-7.379 -28.578,-12.59 -43.375,-17.238 -14.855,-4.441 -29.883,-8.352 -45.57,-10.082"
         style="fill:#17282f;fill-opacity:1;fill-rule:nonzero;stroke:none"
         id="path618" /><path
         d="m 539.004,725.281 c -8.184,12.981 -15.633,26.328 -22.969,39.739 -7.418,13.351 -14.301,26.992 -21.187,40.609 -6.723,13.711 -13.43,27.43 -19.621,41.41 -6.262,13.93 -12.414,27.93 -17.821,42.293 8.199,-12.98 15.645,-26.332 22.985,-39.73 7.406,-13.36 14.297,-27 21.172,-40.633 6.714,-13.707 13.429,-27.418 19.613,-41.399 6.262,-13.941 12.414,-27.941 17.828,-42.289"
         style="fill:#17282f;fill-opacity:1;fill-rule:nonzero;stroke:none"
         id="path620" /><path
         d="m 741.496,408.949 c -8.922,10.231 -17.176,20.91 -25.32,31.672 -8.211,10.699 -15.946,21.75 -23.676,32.789 -7.578,11.149 -15.152,22.301 -22.242,33.781 -7.153,11.438 -14.211,22.938 -20.578,34.918 8.933,-10.199 17.179,-20.89 25.332,-31.648 8.207,-10.711 15.941,-21.742 23.66,-32.801 7.574,-11.148 15.148,-22.289 22.238,-33.789 7.153,-11.43 14.207,-22.941 20.586,-34.922"
         style="fill:#17282f;fill-opacity:1;fill-rule:nonzero;stroke:none"
         id="path622" /><path
         d="m 3430.9,2915.37 h -826.59 l -64.01,561.4 h 826.6 l 64,-561.4"
         style="fill:#999b9b;fill-opacity:1;fill-rule:nonzero;stroke:none"
         id="path624" /><path
         d="m 3385.86,2953.02 h -745.1 l -55.41,486.09 h 745.1 l 55.41,-486.09"
         style="fill:#ffffff;fill-opacity:1;fill-rule:nonzero;stroke:none"
         id="path626" /><path
         d="m 2925.69,3183.34 -11.91,-14.15 -117.22,101.19 11.91,14.15 117.22,-101.19"
         style="fill:#fabb1e;fill-opacity:1;fill-rule:nonzero;stroke:none"
         id="path628" /><path
         d="m 2895.51,3284.53 16.39,-14.15 -85.16,-101.19 -16.4,14.15 85.17,101.19"
         style="fill:#fabb1e;fill-opacity:1;fill-rule:nonzero;stroke:none"
         id="path630" /><path
         d="m 3176.29,3183.34 -11.91,-14.15 -117.22,101.19 11.9,14.15 117.23,-101.19"
         style="fill:#fabb1e;fill-opacity:1;fill-rule:nonzero;stroke:none"
         id="path632" /><path
         d="m 3146.11,3284.53 16.39,-14.15 -85.17,-101.19 -16.38,14.15 85.16,101.19"
         style="fill:#fabb1e;fill-opacity:1;fill-rule:nonzero;stroke:none"
         id="path634" /><path
         d="m 2781.58,3086.07 -3.17,20.01 h 454.29 l 3.16,-20.01 h -454.28"
         style="fill:#fabb1e;fill-opacity:1;fill-rule:nonzero;stroke:none"
         id="path636" /><path
         d="M 3673.47,2915.37 H 2610.09 v 37.65 h 1063.38 v -37.65"
         style="fill:#999b9b;fill-opacity:1;fill-rule:nonzero;stroke:none"
         id="path638" /><path
         d="m 3763.24,2915.37 h -922.2 v 37.65 h 922.2 v -37.65"
         style="fill:#bebfbd;fill-opacity:1;fill-rule:nonzero;stroke:none"
         id="path640" /><path
         d="m 3333.14,3415.52 -2.69,23.59 h -745.1 l 2.69,-23.59 h 745.1"
         style="fill:#17282f;fill-opacity:1;fill-rule:nonzero;stroke:none"
         id="path642" /><path
         d="m 2648.07,3427.31 c 0.35,-3.23 3,-5.85 5.92,-5.85 2.91,0 4.98,2.62 4.63,5.85 -0.36,3.24 -3.01,5.86 -5.92,5.86 -2.92,0 -4.99,-2.62 -4.63,-5.86"
         style="fill:#bebfbd;fill-opacity:1;fill-rule:nonzero;stroke:none"
         id="path644" /><path
         d="m 2626.51,3427.31 c 0.36,-3.23 3.01,-5.85 5.92,-5.85 2.92,0 4.99,2.62 4.64,5.85 -0.36,3.24 -3.02,5.86 -5.93,5.86 -2.92,0 -4.99,-2.62 -4.63,-5.86"
         style="fill:#ffffff;fill-opacity:1;fill-rule:nonzero;stroke:none"
         id="path646" /><path
         d="m 2604.95,3427.31 c 0.36,-3.23 3.02,-5.85 5.93,-5.85 2.92,0 4.99,2.62 4.63,5.85 -0.35,3.24 -3.01,5.86 -5.92,5.86 -2.92,0 -4.99,-2.62 -4.64,-5.86"
         style="fill:#fabb1e;fill-opacity:1;fill-rule:nonzero;stroke:none"
         id="path648" /></g></g></svg>
