<svg width="384" height="387" viewBox="0 0 384 387" fill="none" xmlns="http://www.w3.org/2000/svg">
<g clip-path="url(#clip0_347_1923)">
<path d="M20.19 130.18H14.77C8.95376 130.18 3.37579 132.49 -0.736885 136.603C-4.84956 140.716 -7.16003 146.294 -7.16003 152.11V272.45C-7.16003 278.266 -4.84956 283.844 -0.736885 287.957C3.37579 292.07 8.95376 294.38 14.77 294.38H89.13C94.9462 294.38 100.524 292.07 104.637 287.957C108.749 283.844 111.06 278.266 111.06 272.45" stroke="#263238" stroke-width="1.10311" stroke-linecap="round" stroke-linejoin="round" stroke-dasharray="4.41 4.41"/>
<path d="M105 16.63V-7.14001C105 -10.6967 106.411 -14.1081 108.923 -16.6259C111.435 -19.1436 114.843 -20.5621 118.4 -20.57H215.1C218.662 -20.57 222.078 -19.1551 224.596 -16.6365C227.115 -14.1178 228.53 -10.7019 228.53 -7.14001" stroke="#263238" stroke-width="1.10311" stroke-linecap="round" stroke-linejoin="round" stroke-dasharray="4.41 4.41"/>
<path d="M192 387.16C297.774 387.16 383.52 375.179 383.52 360.4C383.52 345.621 297.774 333.64 192 333.64C86.2264 333.64 0.47998 345.621 0.47998 360.4C0.47998 375.179 86.2264 387.16 192 387.16Z" fill="#C778DD"/>
<path opacity="0.5" d="M192 387.16C297.774 387.16 383.52 375.179 383.52 360.4C383.52 345.621 297.774 333.64 192 333.64C86.2264 333.64 0.47998 345.621 0.47998 360.4C0.47998 375.179 86.2264 387.16 192 387.16Z" fill="white"/>
<path d="M372.54 48.52V228.58C372.54 234.466 370.202 240.111 366.041 244.274C361.88 248.437 356.236 250.777 350.35 250.78H33.65C27.7639 250.777 22.1198 248.437 17.9587 244.274C13.7975 240.111 11.46 234.466 11.46 228.58V48.52C11.46 47.99 11.46 47.52 11.53 46.96C11.9198 41.3588 14.4195 36.1138 18.5247 32.2832C22.6299 28.4527 28.0352 26.3216 33.65 26.32H350.35C355.971 26.3223 361.382 28.459 365.488 32.2979C369.594 36.1368 372.09 41.3916 372.47 47C372.52 47.48 372.54 48 372.54 48.52Z" fill="white" stroke="#263238" stroke-width="1.10311" stroke-linecap="round" stroke-linejoin="round"/>
<path d="M22.26 55.28H362.87V221.61C362.87 227.127 360.679 232.417 356.778 236.318C352.877 240.219 347.587 242.41 342.07 242.41H43.07C37.5535 242.41 32.2629 240.219 28.3622 236.318C24.4614 232.417 22.27 227.127 22.27 221.61V55.28H22.26Z" fill="#263238"/>
<path opacity="0.2" d="M362.88 55.28V221.61C362.909 227.096 360.759 232.368 356.901 236.269C353.044 240.169 347.796 242.378 342.31 242.41H42.8299C37.3443 242.378 32.0958 240.169 28.2385 236.269C24.3811 232.368 22.2307 227.096 22.2599 221.61V55.28H362.88Z" fill="white"/>
<path d="M372.47 47H11.5299C11.9198 41.3987 14.4194 36.1538 18.5247 32.3232C22.6299 28.4927 28.0351 26.3616 33.6499 26.36H350.35C355.965 26.3616 361.37 28.4927 365.475 32.3232C369.58 36.1538 372.08 41.3987 372.47 47V47Z" fill="#C778DD" stroke="#263238" stroke-width="1.10311" stroke-miterlimit="10"/>
<path d="M55.88 36.64C55.88 37.4173 55.6495 38.1771 55.2177 38.8234C54.7859 39.4697 54.1721 39.9734 53.454 40.2709C52.7359 40.5683 51.9457 40.6461 51.1833 40.4945C50.421 40.3429 49.7207 39.9686 49.1711 39.419C48.6215 38.8693 48.2472 38.1691 48.0955 37.4067C47.9439 36.6444 48.0217 35.8542 48.3192 35.1361C48.6166 34.418 49.1203 33.8042 49.7666 33.3723C50.4129 32.9405 51.1727 32.71 51.95 32.71C52.9923 32.71 53.9919 33.1241 54.729 33.8611C55.466 34.5981 55.88 35.5977 55.88 36.64Z" fill="#263238"/>
<path d="M72.5 36.64C72.5 37.4173 72.2695 38.1771 71.8377 38.8234C71.4059 39.4697 70.7921 39.9734 70.074 40.2709C69.3558 40.5683 68.5657 40.6461 67.8033 40.4945C67.041 40.3429 66.3407 39.9686 65.7911 39.419C65.2415 38.8693 64.8672 38.1691 64.7155 37.4067C64.5639 36.6444 64.6417 35.8542 64.9392 35.1361C65.2366 34.418 65.7403 33.8042 66.3866 33.3723C67.0329 32.9405 67.7927 32.71 68.57 32.71C69.6123 32.71 70.6119 33.1241 71.3489 33.8611C72.086 34.5981 72.5 35.5977 72.5 36.64V36.64Z" fill="#263238"/>
<path d="M85.19 40.57C87.3605 40.57 89.12 38.8105 89.12 36.64C89.12 34.4695 87.3605 32.71 85.19 32.71C83.0195 32.71 81.26 34.4695 81.26 36.64C81.26 38.8105 83.0195 40.57 85.19 40.57Z" fill="#263238"/>
<path d="M362.87 55.28V221.61C362.87 227.127 360.679 232.417 356.778 236.318C352.877 240.219 347.586 242.41 342.07 242.41H43.0699C38.2553 242.409 33.59 240.738 29.8699 237.682C26.1497 234.625 23.6051 230.373 22.6699 225.65V225.59C22.4157 224.272 22.2885 222.932 22.2899 221.59V55.28H362.87Z" stroke="#263238" stroke-width="1.10311" stroke-miterlimit="10"/>
<path d="M362.55 81C361.092 80.1811 359.541 79.5399 357.93 79.09L356.06 70.74H348.12L346.27 79.09C344.65 79.5318 343.091 80.1734 341.63 81L334.46 76.41L328.85 82L333.36 89.17C332.534 90.6319 331.893 92.1904 331.45 93.81L323.1 95.66V103.6L331.45 105.47C331.888 107.098 332.529 108.663 333.36 110.13L328.77 117.35L334.39 122.96L341.6 118.37C343.058 119.198 344.614 119.843 346.23 120.29L348.09 128.63H356L357.86 120.29C359.472 119.838 361.023 119.194 362.48 118.37L362.85 118.61V80.8L362.55 81ZM352.11 110C350.08 110 348.096 109.398 346.409 108.27C344.721 107.142 343.406 105.539 342.63 103.664C341.854 101.789 341.651 99.7252 342.048 97.7347C342.445 95.7442 343.423 93.916 344.859 92.4815C346.294 91.047 348.124 90.0707 350.114 89.6759C352.105 89.2811 354.169 89.4858 356.043 90.2639C357.918 91.0419 359.52 92.3586 360.646 94.0471C361.772 95.7357 362.372 97.7203 362.37 99.75C362.37 101.097 362.105 102.431 361.589 103.675C361.073 104.919 360.317 106.049 359.364 107.001C358.411 107.953 357.28 108.708 356.036 109.223C354.791 109.737 353.457 110.001 352.11 110V110Z" fill="#263238"/>
<path d="M219.45 89.05V72.31L201.85 68.4C200.9 64.9992 199.558 61.7205 197.85 58.63L199.98 55.28H116.88L118.93 58.54C117.201 61.6169 115.858 64.8949 114.93 68.3L97.3199 72.22V89L114.93 92.93C115.858 96.3606 117.201 99.6651 118.93 102.77L109.26 117.98L121.11 129.82L136.31 120.14C139.394 121.875 142.673 123.234 146.08 124.19L150 141.74H166.7L170.64 124.15C174.035 123.19 177.305 121.83 180.38 120.1L195.59 129.78L207.43 117.94L197.82 102.73C199.523 99.6445 200.866 96.3729 201.82 92.98L219.45 89.05ZM158.45 102.31C154.172 102.31 149.99 101.041 146.433 98.6647C142.876 96.288 140.104 92.9098 138.466 88.9575C136.829 85.0051 136.401 80.656 137.236 76.4602C138.07 72.2644 140.13 68.4103 143.155 65.3853C146.18 62.3603 150.034 60.3003 154.23 59.4657C158.426 58.6311 162.775 59.0594 166.727 60.6965C170.68 62.3336 174.058 65.106 176.435 68.663C178.811 72.2201 180.08 76.402 180.08 80.68C180.081 83.5209 179.523 86.3342 178.436 88.959C177.35 91.5839 175.756 93.9689 173.748 95.9777C171.739 97.9865 169.354 99.5797 166.729 100.666C164.104 101.753 161.291 102.311 158.45 102.31V102.31Z" fill="#263238"/>
<path d="M108.38 204L109.09 190.71L95.32 186.83C94.6808 184.099 93.7348 181.449 92.5 178.93L100.82 167.25L91.9 157.36L79.44 164.36C77.0583 162.862 74.5114 161.643 71.85 160.73L69.47 146.61L56.19 146L52.35 159.81C49.614 160.424 46.9617 161.364 44.45 162.61L32.78 154.3L22.87 163.21L29.93 175.68C28.4165 178.051 27.1943 180.596 26.29 183.26L22.29 183.92V201.92L25.21 202.74C25.8158 205.48 26.7527 208.136 28 210.65L22.26 218.7L22.64 225.59V225.65L28.57 232.22L41.05 225.17C43.4275 226.699 45.9832 227.932 48.66 228.84L51 242.4L51.11 242.97L64.39 243.67L64.74 242.4L68.23 229.87C70.9783 229.255 73.6437 228.315 76.17 227.07L87.82 235.37L97.72 226.47L90.72 213.99C92.2195 211.622 93.425 209.08 94.31 206.42L108.38 204ZM73.11 183.25C70.8352 180.72 67.8611 178.921 64.5638 178.081C61.2665 177.242 57.7943 177.399 54.5864 178.533C51.3785 179.667 48.579 181.727 46.542 184.452C44.5051 187.178 43.3222 190.446 43.1431 193.844C42.964 197.242 43.7966 200.616 45.5357 203.541C47.2748 206.465 49.8422 208.808 52.9131 210.273C55.984 211.738 59.4204 212.26 62.7877 211.771C66.155 211.283 69.3018 209.807 71.83 207.53C75.2057 204.48 77.2356 200.217 77.4755 195.674C77.7154 191.131 76.1457 186.678 73.11 183.29V183.25Z" fill="#263238"/>
<path d="M214.6 184.19C215.114 182.132 215.386 180.021 215.41 177.9L224.96 172.9L222.32 163.21L211.54 163.71C210.448 161.899 209.15 160.221 207.67 158.71L210.86 148.4L202.16 143.4L194.88 151.34C192.826 150.844 190.723 150.576 188.61 150.54L183.61 140.99L173.93 143.62L174.44 154.41C172.629 155.502 170.951 156.8 169.44 158.28L159.12 155.09L154.12 163.78L162.12 171.05C161.603 173.1 161.337 175.206 161.33 177.32L151.76 182.32L154.4 192L165.2 191.49C166.27 193.31 167.564 194.99 169.05 196.49L165.84 206.75L174.55 211.75L181.79 203.87C183.847 204.388 185.959 204.653 188.08 204.66L193.08 214.22L202.76 211.59L202.33 202.37L202.26 200.79C204.097 199.709 205.796 198.409 207.32 196.92L217.63 200.12L221.89 192.68L222.61 191.42L214.6 184.19ZM191.73 190.07C189.248 190.755 186.618 190.687 184.174 189.874C181.731 189.062 179.583 187.543 178.004 185.509C176.425 183.474 175.486 181.017 175.306 178.448C175.125 175.88 175.712 173.315 176.991 171.08C178.27 168.845 180.184 167.041 182.49 165.895C184.797 164.75 187.391 164.315 189.945 164.646C192.498 164.977 194.896 166.059 196.834 167.754C198.772 169.45 200.163 171.683 200.83 174.17C201.719 177.485 201.261 181.017 199.557 183.995C197.852 186.974 195.038 189.158 191.73 190.07V190.07Z" fill="#263238"/>
<path d="M325.32 201.23L327.52 187.93L314.06 182.52C313.754 179.685 313.106 176.898 312.13 174.22L321.82 163.43L313.98 152.43L300.62 158.1C298.402 156.322 295.978 154.818 293.4 153.62L292.62 139.13L279.32 136.93L273.87 150.33C271.048 150.662 268.273 151.316 265.6 152.28L254.78 142.59L243.83 150.43L249.51 163.78C247.947 165.731 246.589 167.839 245.46 170.07C245.31 170.38 245.15 170.69 245.01 171L230.53 171.8L228.32 185.08L230.5 185.96L241.78 190.51C242.088 193.331 242.736 196.105 243.71 198.77L234 209.63L241.85 220.63L255.2 214.93C257.411 216.724 259.832 218.242 262.41 219.45L263.16 233.87L276.45 236.07L281.89 222.77C284.718 222.461 287.499 221.81 290.17 220.83L300.97 230.52L311.97 222.67L306.29 209.31C308.099 207.09 309.628 204.655 310.84 202.06L325.32 201.23ZM288.02 200.63C285.222 202.637 281.892 203.77 278.45 203.885C275.008 203.999 271.61 203.091 268.684 201.273C265.759 199.456 263.438 196.813 262.016 193.677C260.593 190.541 260.132 187.053 260.692 183.655C261.252 180.257 262.806 177.102 265.159 174.588C267.512 172.073 270.558 170.313 273.912 169.53C277.265 168.747 280.776 168.976 283.999 170.188C287.222 171.401 290.013 173.541 292.02 176.34C294.708 180.094 295.794 184.762 295.04 189.318C294.286 193.873 291.754 197.942 288 200.63H288.02Z" fill="#263238"/>
<path d="M145.08 102.77H40.5C33.2596 102.77 27.39 108.64 27.39 115.88V260.67C27.39 267.91 33.2596 273.78 40.5 273.78H145.08C152.32 273.78 158.19 267.91 158.19 260.67V115.88C158.19 108.64 152.32 102.77 145.08 102.77Z" fill="#C778DD" stroke="#263238" stroke-width="1.10311" stroke-miterlimit="10"/>
<path opacity="0.2" d="M145.08 102.77H40.5C33.2596 102.77 27.39 108.64 27.39 115.88V260.67C27.39 267.91 33.2596 273.78 40.5 273.78H145.08C152.32 273.78 158.19 267.91 158.19 260.67V115.88C158.19 108.64 152.32 102.77 145.08 102.77Z" fill="black"/>
<path d="M170.36 128.8V273.59C170.361 275.312 170.023 277.018 169.365 278.61C168.707 280.202 167.741 281.648 166.524 282.867C165.306 284.085 163.86 285.052 162.269 285.711C160.678 286.371 158.972 286.71 157.25 286.71H52.6699C50.9483 286.709 49.2438 286.368 47.6537 285.708C46.0637 285.048 44.6192 284.081 43.4027 282.863C42.1863 281.645 41.2217 280.199 40.5641 278.608C39.9064 277.017 39.5686 275.312 39.57 273.59V128.8C39.5699 125.325 40.9498 121.992 43.4062 119.533C45.8627 117.075 49.1947 115.693 52.6699 115.69H157.25C160.727 115.69 164.062 117.071 166.52 119.53C168.979 121.988 170.36 125.323 170.36 128.8Z" fill="white" stroke="#263238" stroke-width="1.10311" stroke-linecap="round" stroke-linejoin="round"/>
<path d="M170.36 128.8V136.55H39.5699V128.8C39.5699 125.325 40.9498 121.992 43.4062 119.533C45.8627 117.075 49.1947 115.693 52.6699 115.69H157.25C160.727 115.69 164.062 117.071 166.52 119.53C168.979 121.988 170.36 125.323 170.36 128.8Z" fill="#C778DD" stroke="#263238" stroke-width="1.10311" stroke-miterlimit="10"/>
<path d="M84.05 145.53H51.87V150.93H84.05V145.53Z" fill="#C778DD"/>
<path d="M84.05 193.92H51.87V199.32H84.05V193.92Z" fill="#C778DD"/>
<path d="M84.05 237.8H51.87V243.2H84.05V237.8Z" fill="#C778DD"/>
<path d="M143.26 158.9H51.87V162.86H143.26V158.9Z" fill="#263238"/>
<path d="M126.78 166.47H51.87V170.33H126.78V166.47Z" fill="#263238"/>
<path d="M136.59 173.92H51.87V177.78H136.59V173.92Z" fill="#263238"/>
<path d="M136.59 181.36H51.87V185.22H136.59V181.36Z" fill="#263238"/>
<path d="M143.26 202.78H51.87V206.74H143.26V202.78Z" fill="#263238"/>
<path d="M126.78 210.35H51.87V214.21H126.78V210.35Z" fill="#263238"/>
<path d="M136.59 217.8H51.87V221.66H136.59V217.8Z" fill="#263238"/>
<path d="M143.26 250.96H51.87V254.92H143.26V250.96Z" fill="#263238"/>
<path d="M126.78 258.54H51.87V262.4H126.78V258.54Z" fill="#263238"/>
<path d="M136.59 265.99H51.87V269.85H136.59V265.99Z" fill="#263238"/>
<path d="M317.77 15.29V73.81C317.77 75.8634 317.365 77.8967 316.579 79.7937C315.793 81.6906 314.641 83.4141 313.188 84.8656C311.736 86.3171 310.012 87.4682 308.114 88.2531C306.217 89.038 304.183 89.4413 302.13 89.44H167.35C165.297 89.4413 163.263 89.038 161.366 88.2531C159.468 87.4682 157.744 86.3171 156.291 84.8656C154.839 83.4141 153.687 81.6906 152.901 79.7937C152.115 77.8967 151.71 75.8634 151.71 73.81V15.29C151.713 11.1429 153.361 7.16629 156.294 4.2338C159.226 1.3013 163.203 -0.347326 167.35 -0.349976H302.13C306.278 -0.349976 310.256 1.2978 313.189 4.23087C316.122 7.16394 317.77 11.142 317.77 15.29Z" fill="white" stroke="#222221" stroke-width="1.10311" stroke-miterlimit="10"/>
<path d="M317.77 15.29V16.63H151.71V15.29C151.713 11.1429 153.361 7.16629 156.294 4.2338C159.226 1.3013 163.203 -0.347326 167.35 -0.349976H302.13C306.278 -0.349976 310.256 1.2978 313.189 4.23087C316.122 7.16394 317.77 11.142 317.77 15.29Z" fill="#C778DD" stroke="#263238" stroke-width="1.10311" stroke-miterlimit="10"/>
<path d="M176.11 10.94C175.775 11.2762 175.347 11.5054 174.881 11.5984C174.415 11.6915 173.933 11.6443 173.494 11.4628C173.055 11.2814 172.68 10.9737 172.416 10.5789C172.152 10.1841 172.011 9.7199 172.011 9.24498C172.011 8.77005 172.152 8.3058 172.416 7.911C172.68 7.5162 173.055 7.20858 173.494 7.0271C173.933 6.84562 174.415 6.79844 174.881 6.89151C175.347 6.98459 175.775 7.21375 176.11 7.54998C176.556 8.00118 176.807 8.61026 176.807 9.24498C176.807 9.87969 176.556 10.4888 176.11 10.94V10.94Z" fill="#263238"/>
<path d="M187.23 10.94C186.895 11.2762 186.467 11.5054 186.001 11.5984C185.536 11.6915 185.053 11.6443 184.614 11.4628C184.175 11.2814 183.8 10.9737 183.536 10.5789C183.272 10.1841 183.131 9.7199 183.131 9.24498C183.131 8.77005 183.272 8.3058 183.536 7.911C183.8 7.5162 184.175 7.20858 184.614 7.0271C185.053 6.84562 185.536 6.79844 186.001 6.89151C186.467 6.98459 186.895 7.21375 187.23 7.54998C187.676 8.00118 187.927 8.61026 187.927 9.24498C187.927 9.87969 187.676 10.4888 187.23 10.94V10.94Z" fill="#263238"/>
<path d="M198.35 10.94C198.015 11.2762 197.587 11.5054 197.121 11.5984C196.656 11.6915 196.173 11.6443 195.734 11.4628C195.295 11.2814 194.92 10.9737 194.656 10.5789C194.392 10.1841 194.251 9.7199 194.251 9.24498C194.251 8.77005 194.392 8.3058 194.656 7.911C194.92 7.5162 195.295 7.20858 195.734 7.0271C196.173 6.84562 196.656 6.79844 197.121 6.89151C197.587 6.98459 198.015 7.21375 198.35 7.54998C198.796 8.00118 199.047 8.61026 199.047 9.24498C199.047 9.87969 198.796 10.4888 198.35 10.94Z" fill="#263238"/>
<path d="M216.58 27.39H162.3V74.31H216.58V27.39Z" stroke="#263238" stroke-width="1.10311" stroke-linecap="round" stroke-linejoin="round" stroke-dasharray="4.41 4.41"/>
<path d="M287.43 27.39H224.96V30.69H287.43V27.39Z" fill="#263238"/>
<path d="M272.88 34.22H224.96V37.51H272.88V34.22Z" fill="#263238"/>
<path d="M296.31 41.02H224.96V44.35H296.31V41.02Z" fill="#263238"/>
<path d="M285.72 47.65H224.96V50.98H285.72V47.65Z" fill="#263238"/>
<path d="M322.31 160.53H291.76C288.154 160.53 285.23 163.454 285.23 167.06V184.99C285.23 188.596 288.154 191.52 291.76 191.52H322.31C325.916 191.52 328.84 188.596 328.84 184.99V167.06C328.84 163.454 325.916 160.53 322.31 160.53Z" fill="white" stroke="#263238" stroke-width="1.10311" stroke-linecap="round" stroke-linejoin="round"/>
<path d="M299.3 169.85L290.91 175.11L298.7 182.01" stroke="#263238" stroke-width="1.10311" stroke-linecap="round" stroke-linejoin="round"/>
<path d="M314.58 182.51L322.12 176.09L313.42 170.39" stroke="#263238" stroke-width="1.10311" stroke-linecap="round" stroke-linejoin="round"/>
<path d="M303.38 186.47L309.57 167.05" stroke="#263238" stroke-width="1.10311" stroke-linecap="round" stroke-linejoin="round"/>
<path d="M238.86 355.47C238.86 355.47 209.86 363.78 205.81 365.22C202.13 366.52 192.15 370.02 184.66 368.93C183.937 368.826 183.222 368.672 182.52 368.47C174.93 366.21 171.52 364.1 170.52 359.33C169.52 354.56 173.3 351.04 176.94 348.79C180.58 346.54 200.32 344.19 200.32 344.19L205.09 345.59L238.86 355.47Z" fill="#C778DD"/>
<path d="M184.66 368.93C183.937 368.826 183.222 368.672 182.52 368.47C174.93 366.21 171.52 364.1 170.52 359.33C169.52 354.56 173.3 351.04 176.94 348.79C180.58 346.54 200.32 344.19 200.32 344.19L205.09 345.59C200.77 347.59 184.69 348.68 181.18 350.7C177.67 352.72 175.98 356.52 178.05 361.7C179.16 364.4 182.12 367.05 184.66 368.93Z" fill="white"/>
<path d="M234.5 356.65C234.5 356.65 212.72 362.29 204.08 365.9C195.44 369.51 178.97 371.09 173.08 363.65C167.19 356.21 172.4 349.79 178.27 348.36C184.14 346.93 196.01 344.68 202.49 345.59" stroke="#263238" stroke-width="1.10311" stroke-linecap="round" stroke-linejoin="round"/>
<path d="M185.09 368.54C185.09 368.54 174.01 362.46 177.69 353.94C180.41 347.66 195.19 349.02 202.51 345.59" stroke="#263238" stroke-width="1.10311" stroke-linecap="round" stroke-linejoin="round"/>
<path d="M327.19 370.28C326.89 373.28 325.84 376.09 322.84 377.86C320.84 379.04 318 379.74 313.93 379.7C303.76 379.57 284.64 372.3 284.64 372.3L266.74 362.4L276.05 347.67L278.6 343.67L285.18 345.15C285.18 345.15 290.63 348.24 296.11 350.7C301.59 353.16 314.9 353.7 319.59 357.47C324.28 361.24 327.7 365.34 327.19 370.28Z" fill="#C778DD"/>
<path d="M327.19 370.28C326.89 373.28 325.84 376.09 322.84 377.86C323.704 374.911 323.528 371.754 322.34 368.92C320.34 364.43 313.83 360.47 305.27 359.81C296.71 359.15 290.16 355.15 286.73 353.36C284.05 351.97 278.4 348.93 276.05 347.67L278.6 343.67L285.18 345.15C285.18 345.15 290.63 348.24 296.11 350.7C301.59 353.16 314.9 353.7 319.59 357.47C324.28 361.24 327.7 365.34 327.19 370.28Z" fill="white"/>
<path d="M270.71 365.18C283.595 372.67 297.835 377.533 312.61 379.49C315.87 379.88 319.66 379.94 321.84 377.49C322.42 376.782 322.852 375.965 323.109 375.087C323.367 374.21 323.445 373.289 323.34 372.38C322.95 367.78 319.08 364.14 314.84 362.31C310.6 360.48 305.93 360.06 301.42 359.05C296.935 358.039 292.599 356.452 288.52 354.33C285.28 352.64 282.15 350.59 278.58 349.83C275.01 349.07 270.76 349.99 268.85 353.11" stroke="#263238" stroke-width="1.10311" stroke-linecap="round" stroke-linejoin="round"/>
<path d="M320.64 378.74C322.316 377.938 323.78 376.755 324.918 375.286C326.055 373.817 326.833 372.103 327.19 370.28C327.84 365.95 325.37 361.59 321.9 358.93C318.43 356.27 314.08 355.01 309.79 354.12C305.5 353.23 301.11 352.63 297 351C290.73 348.54 284.54 343.7 278 345.43" stroke="#263238" stroke-width="1.10311" stroke-linecap="round" stroke-linejoin="round"/>
<path d="M290.91 210.26L260.62 198.74L260.24 198.59C260.24 198.59 260.35 197.79 260.44 196.59C260.63 194.17 260.73 190.23 259.59 188.9C257.9 186.9 253.12 188.58 248.45 186.44C243.78 184.3 235.15 188.13 235.15 188.13C235.15 188.13 228.91 186.98 226.15 191.48C224.75 195.11 225.23 200.48 225.23 200.48L224.66 200.68C221.05 202.03 201.41 209.42 197.26 212.39C192.67 215.64 187.59 249.01 185.96 258.81C184.33 268.61 181.43 277.44 182.9 280.81C184.37 284.18 205.47 300.43 217.61 304.62C229.75 308.81 272.8 307.62 272.8 307.62C272.8 307.62 273.5 307.43 274.75 307.03C282.03 304.69 307.86 295.03 321.57 272.35C321.59 272.39 308.31 228.86 290.91 210.26ZM209.07 266.39C206.84 267.97 208.07 274.09 208.07 274.09L204.28 270.75L213.8 247.34L217.86 265.34C217.86 265.34 211.3 264.82 209.07 266.39V266.39ZM285.23 281.26C284.18 281.8 288.23 270.55 286.31 268C284.39 265.45 278.6 265.69 278.6 265.69L279.09 262.62L282.52 245.02L283.66 243.67C283.66 243.67 295.44 263.86 297.55 270.98C297.55 271 284.71 281.26 285.23 281.26Z" fill="#C778DD"/>
<path d="M233.72 137.25L218.08 153.85C218.08 153.85 215.93 155.76 216.78 160.57C217.63 165.38 219.63 169.57 221.14 169.85C222.335 170.059 223.546 170.166 224.76 170.17C224.76 170.17 228.11 177.43 230.49 180.28C230.49 180.28 231.31 191.49 230.87 194.6C230.87 194.6 236.49 199.51 241.78 200.13C247.07 200.75 255.24 192.65 255.24 192.65L257.24 182.73C257.24 182.73 262.04 175.45 262.36 173.51C262.68 171.57 264.88 172.07 265.96 171.11C267.04 170.15 269.53 165.88 269.96 161.84C270.39 157.8 270.4 153.16 265.71 154.52C261.64 153.43 264.19 144.83 264.19 144.83L257.04 138.53L233.72 137.25Z" fill="white"/>
<path opacity="0.5" d="M260.62 198.74C260.384 199.358 260.114 199.962 259.81 200.55C257.23 205.41 245.99 214.68 245.99 214.68L242.59 204.23L240.73 214.68C236.98 213.04 225.54 203.13 225.54 203.13C225.54 203.13 225.15 202.2 224.68 200.75L225.25 200.55C225.25 200.55 224.77 195.14 226.17 191.55C228.91 187.05 235.17 188.2 235.17 188.2C235.17 188.2 243.8 184.37 248.47 186.51C253.14 188.65 257.92 186.99 259.61 188.97C261.3 190.95 260.26 198.63 260.26 198.63L260.62 198.74Z" fill="white"/>
<path opacity="0.2" d="M290.91 210.26L260.62 198.74L260.24 198.59C260.24 198.59 260.35 197.79 260.44 196.59L259.81 200.52L255.33 206.6C260.119 208.363 264.794 210.421 269.33 212.76C271.501 213.923 273.273 215.712 274.414 217.895C275.555 220.078 276.014 222.553 275.73 225L270.15 272.75L267.86 299.86L274.77 307.03C282.05 304.69 307.88 295.03 321.59 272.35C321.59 272.39 308.31 228.86 290.91 210.26ZM285.23 281.26C284.18 281.8 288.23 270.55 286.31 268C284.39 265.45 278.6 265.69 278.6 265.69L279.09 262.62L282.52 245.02L283.66 243.67C283.66 243.67 295.44 263.86 297.55 270.98C297.55 271 284.71 281.26 285.23 281.26Z" fill="black"/>
<path opacity="0.2" d="M219.87 268L215.16 252.26C215.16 252.26 206.71 223.45 200.92 216.35L202.44 236.61C202.44 236.61 197.44 260.81 192.87 268C188.3 275.19 187.28 277 192.87 277C198.46 277 212.07 287.84 212.07 287.84L211.02 278.84L219.87 268ZM208 274.09L204.21 270.75L213.73 247.34L217.79 265.34C217.79 265.34 211.27 264.85 209.04 266.42C206.81 267.99 208 274.09 208 274.09Z" fill="black"/>
<path d="M230.49 180.28C230.49 180.28 231.35 188.77 230.49 192.65" stroke="#263238" stroke-width="1.10311" stroke-linecap="round" stroke-linejoin="round"/>
<path d="M256.11 191.51C256.119 188.78 256.435 186.06 257.05 183.4" stroke="#263238" stroke-width="1.10311" stroke-linecap="round" stroke-linejoin="round"/>
<path d="M258.38 143.58C258.38 143.58 263.52 150.03 263.25 154.91C262.98 159.79 262.6 165.57 262.73 171.23C262.86 176.89 253.64 188.75 248.9 189.8C244.16 190.85 240.08 191.12 237.05 188.09C234.02 185.06 230.99 180.85 227.05 175.45C223.11 170.05 224.05 158.2 224.05 158.2" stroke="#263238" stroke-width="1.10311" stroke-linecap="round" stroke-linejoin="round"/>
<path d="M246 162.71C245.687 164.482 245.553 166.281 245.6 168.08C245.497 169.596 245.968 171.095 246.92 172.28C247.49 172.86 248.31 173.33 248.42 174.13C248.417 174.49 248.317 174.843 248.131 175.151C247.944 175.459 247.678 175.711 247.36 175.88C246.719 176.204 246.101 176.571 245.51 176.98" stroke="#263238" stroke-width="1.10311" stroke-linecap="round" stroke-linejoin="round"/>
<path d="M237.87 177.6C237.87 177.6 238.46 181.43 243.59 182.23" stroke="#263238" stroke-width="1.10311" stroke-linecap="round" stroke-linejoin="round"/>
<path d="M238.4 165.63C238.4 166.74 237.92 167.63 237.33 167.63C236.74 167.63 236.26 166.74 236.26 165.63C236.26 164.52 236.74 163.63 237.33 163.63C237.92 163.63 238.4 164.53 238.4 165.63Z" fill="#263238"/>
<path d="M253.71 166.11C253.71 167.22 253.23 168.11 252.64 168.11C252.05 168.11 251.57 167.21 251.57 166.11C251.57 165.01 252.05 164.11 252.64 164.11C253.23 164.11 253.71 165 253.71 166.11Z" fill="#263238"/>
<path d="M250.62 161.26C250.62 161.26 255.62 156.26 259.81 161.84" stroke="#263238" stroke-width="2.20621" stroke-linecap="round" stroke-linejoin="round"/>
<path d="M240.09 161.36C240.09 161.36 236.93 157.82 231.95 161.36" stroke="#263238" stroke-width="2.20621" stroke-linecap="round" stroke-linejoin="round"/>
<path d="M230.87 185C230.87 185 233.92 193.4 240.73 195.79C247.54 198.18 256.58 185.79 256.58 185.79L256.11 184.18C256.11 184.18 250.18 191.88 243.59 190.57C237 189.26 230.49 180.32 230.49 180.32L230.87 185Z" fill="#263238"/>
<path d="M224.76 169.85C224.76 169.85 220.7 171.28 219.62 168.12C218.54 164.96 214.84 156.63 218.08 153.85C221.32 151.07 223.92 157.52 223.92 157.52" stroke="#263238" stroke-width="1.10311" stroke-linecap="round" stroke-linejoin="round"/>
<path d="M262.72 171.57C262.72 171.57 266.49 172.33 267.57 169.17C268.65 166.01 272.35 157.68 269.11 154.9C265.87 152.12 263.27 158.57 263.27 158.57" stroke="#263238" stroke-width="1.10311" stroke-linecap="round" stroke-linejoin="round"/>
<path d="M223.92 165.63C225.33 165.408 226.603 164.657 227.48 163.53C228.015 162.541 228.355 161.458 228.48 160.34C228.851 158.213 229.039 156.059 229.04 153.9C228.996 153.057 229.073 152.211 229.27 151.39C229.57 150.564 230.033 149.805 230.63 149.16C232.04 147.5 233.75 146.1 235.1 144.38C235.824 143.568 236.374 142.618 236.718 141.586C237.062 140.554 237.192 139.464 237.1 138.38C240.194 140.931 243.809 142.773 247.691 143.777C251.573 144.78 255.628 144.922 259.57 144.19C266.72 142.79 273.57 136.52 272.74 128.64C272.583 127.319 272.017 126.08 271.12 125.097C270.223 124.114 269.041 123.437 267.74 123.16C264.21 122.28 261.04 124.16 257.84 125.37C252.01 127.57 246.3 123.79 240.41 123.16C235.41 122.61 229.18 123.24 226.56 128.25C226.56 128.25 217.56 129.31 213.56 136.75C209.56 144.19 217.13 154.48 217.13 154.48C217.13 154.48 220.13 150.8 224.06 158.24L223.92 165.63Z" fill="#263238"/>
<path d="M259 141.68C259 141.68 256.66 153.88 262.77 159.79C262.77 159.79 264.11 156.12 265.46 155.22C266.433 153.055 266.846 150.68 266.659 148.313C266.472 145.947 265.691 143.665 264.39 141.68C259.87 134.58 259 141.68 259 141.68Z" fill="#263238"/>
<path opacity="0.2" d="M270.14 127.8C269.603 129.465 268.694 130.985 267.481 132.245C266.268 133.505 264.783 134.471 263.14 135.07C254.66 138.53 246.43 134.7 237.93 133.95C231 133.33 223.35 139.59 222.86 146.71" stroke="white" stroke-width="1.10311" stroke-linecap="round" stroke-linejoin="round"/>
<path opacity="0.2" d="M217.63 144.83C217.734 142.02 218.635 139.298 220.229 136.982C221.823 134.666 224.043 132.851 226.63 131.75" stroke="white" stroke-width="1.10311" stroke-linecap="round" stroke-linejoin="round"/>
<path d="M228.53 191.51C232.259 195.396 236.759 198.462 241.74 200.51C241.74 200.51 251.89 197.56 257.05 190.51" stroke="#263238" stroke-width="1.10311" stroke-linecap="round" stroke-linejoin="round"/>
<path d="M238.903 173.773C243.411 171.705 245.389 166.374 243.321 161.866C241.253 157.358 235.923 155.38 231.415 157.448C226.907 159.516 224.929 164.846 226.996 169.354C229.064 173.862 234.395 175.84 238.903 173.773Z" stroke="#263238" stroke-width="1.10311" stroke-linecap="round" stroke-linejoin="round"/>
<path d="M256.304 174.563C261.226 173.959 264.727 169.478 264.122 164.556C263.518 159.633 259.038 156.132 254.115 156.737C249.192 157.341 245.692 161.822 246.296 166.744C246.901 171.667 251.381 175.167 256.304 174.563Z" stroke="#263238" stroke-width="1.10311" stroke-linecap="round" stroke-linejoin="round"/>
<path d="M230.49 188.16C229.58 188.399 228.728 188.819 227.984 189.394C227.24 189.97 226.62 190.689 226.16 191.51C224.57 194.31 225.53 203.12 225.53 203.12C225.53 203.12 233.74 211.24 240.73 214.67L242.79 203.08L245.99 214.67C245.99 214.67 256.81 207.02 259.81 200.55C259.81 200.55 260.81 193 259.81 190.55C259.583 189.87 259.15 189.276 258.571 188.852C257.993 188.427 257.297 188.193 256.58 188.18" stroke="#263238" stroke-width="1.10311" stroke-linecap="round" stroke-linejoin="round"/>
<path d="M217.63 265.7C217.63 265.7 214.42 244.2 210.15 235.43" stroke="#263238" stroke-width="1.10311" stroke-linecap="round" stroke-linejoin="round"/>
<path d="M200.92 216.35C203.406 219.883 205.625 223.597 207.56 227.46" stroke="#263238" stroke-width="1.10311" stroke-linecap="round" stroke-linejoin="round"/>
<path d="M285.23 232.4C286.092 228.805 287.273 225.295 288.76 221.91" stroke="#263238" stroke-width="1.10311" stroke-linecap="round" stroke-linejoin="round"/>
<path d="M278.6 265.7C278.6 265.7 280.91 250.96 283.67 238.82" stroke="#263238" stroke-width="1.10311" stroke-linecap="round" stroke-linejoin="round"/>
<path d="M282.52 245C284.753 242.04 287.892 239.89 291.46 238.88" stroke="#263238" stroke-width="1.10311" stroke-linecap="round" stroke-linejoin="round"/>
<path d="M260.25 198.59C260.25 198.59 278.88 206.04 290.91 210.27C290.91 210.27 305.71 224.18 321.58 272.39C321.58 272.39 307.04 296.85 279.38 304.69" stroke="#263238" stroke-width="1.10311" stroke-linecap="round" stroke-linejoin="round"/>
<path d="M284.18 282.13L297.55 271C297.55 271 304.62 265.63 311.97 269.3" stroke="#263238" stroke-width="1.10311" stroke-linecap="round" stroke-linejoin="round"/>
<path d="M283.67 243.67C283.67 243.67 294.72 260 297.55 271" stroke="#263238" stroke-width="1.10311" stroke-linecap="round" stroke-linejoin="round"/>
<path d="M208.15 274.71L204.24 271C204.24 271 198.44 270 191.86 274.39" stroke="#263238" stroke-width="1.10311" stroke-linecap="round" stroke-linejoin="round"/>
<path d="M204.24 271C204.24 271 209.1 255 213.89 246.81" stroke="#263238" stroke-width="1.10311" stroke-linecap="round" stroke-linejoin="round"/>
<path d="M225.25 200.55C225.25 200.55 198.44 210.61 195.81 213.55C193.18 216.49 183.19 272.74 182.92 279.18C182.69 284.94 203.57 297.87 213.92 303.32" stroke="#263238" stroke-width="1.10311" stroke-linecap="round" stroke-linejoin="round"/>
<path d="M245.3 219.56C245.3 219.91 245.196 220.252 245.002 220.543C244.807 220.834 244.531 221.061 244.207 221.195C243.884 221.329 243.528 221.364 243.185 221.296C242.841 221.228 242.526 221.059 242.278 220.812C242.031 220.564 241.862 220.249 241.794 219.905C241.726 219.562 241.761 219.206 241.895 218.883C242.029 218.559 242.256 218.283 242.547 218.088C242.838 217.894 243.18 217.79 243.53 217.79C243.763 217.789 243.994 217.834 244.209 217.922C244.424 218.011 244.62 218.141 244.785 218.306C244.949 218.47 245.079 218.666 245.168 218.881C245.256 219.096 245.301 219.327 245.3 219.56V219.56Z" fill="#263238"/>
<path d="M276.32 313.78H215.32C214.941 313.78 214.577 313.629 214.309 313.361C214.041 313.093 213.89 312.729 213.89 312.35C213.89 311.971 214.041 311.607 214.309 311.339C214.577 311.071 214.941 310.92 215.32 310.92H276.32C276.699 310.92 277.063 311.071 277.331 311.339C277.599 311.607 277.75 311.971 277.75 312.35C277.75 312.729 277.599 313.093 277.331 313.361C277.063 313.629 276.699 313.78 276.32 313.78Z" fill="#263238"/>
<path d="M278.46 309L286.63 270.6C286.757 270.005 286.749 269.388 286.606 268.797C286.464 268.205 286.191 267.652 285.808 267.179C285.424 266.707 284.94 266.326 284.39 266.065C283.84 265.803 283.239 265.669 282.63 265.67H211.33C210.726 265.67 210.13 265.804 209.585 266.062C209.039 266.321 208.558 266.697 208.175 267.164C207.793 267.63 207.518 268.176 207.372 268.762C207.226 269.347 207.212 269.958 207.33 270.55L214.66 307.67C214.84 308.582 215.325 309.405 216.036 310.003C216.747 310.601 217.641 310.939 218.57 310.96L274.36 312.24C275.314 312.261 276.245 311.949 276.993 311.358C277.741 310.766 278.26 309.933 278.46 309V309Z" fill="white" stroke="#263238" stroke-width="1.10311" stroke-linecap="round" stroke-linejoin="round"/>
<path d="M252.44 287.83C252.438 288.955 252.103 290.054 251.476 290.988C250.85 291.923 249.96 292.651 248.92 293.08C247.881 293.509 246.737 293.62 245.634 293.399C244.531 293.179 243.518 292.636 242.723 291.84C241.928 291.044 241.387 290.03 241.169 288.926C240.95 287.823 241.063 286.679 241.494 285.64C241.925 284.601 242.654 283.713 243.59 283.088C244.525 282.463 245.625 282.13 246.75 282.13C247.498 282.13 248.239 282.278 248.93 282.564C249.621 282.851 250.248 283.271 250.777 283.8C251.305 284.33 251.724 284.958 252.01 285.649C252.295 286.341 252.441 287.082 252.44 287.83Z" fill="#263238"/>
<path d="M263.63 269.34H272.1" stroke="#263238" stroke-width="1.10311" stroke-linecap="round" stroke-linejoin="round"/>
<path d="M223.18 269.34H255.33" stroke="#263238" stroke-width="1.10311" stroke-linecap="round" stroke-linejoin="round"/>
<path d="M278.6 349.77L272.1 366.83C272.1 366.83 255.52 362.65 234.29 358.3C212.08 353.75 188.89 347.86 176.86 326.75C175.4 324.18 174.42 321.14 175.11 318.26C176.84 310.97 186.33 308.99 192.58 308.26C196.509 307.835 200.458 307.615 204.41 307.6C206.41 307.6 213.06 306.51 214.67 307.7C217.089 309.465 219.671 310.995 222.38 312.27C225.93 313.78 277.75 310.92 277.75 310.92C278.652 308.954 279.203 306.846 279.38 304.69C287.53 300.55 306.38 297.05 314.38 298.6C326.91 301.03 334.22 308.34 332.83 316C331.44 323.66 303.76 344.2 278.6 349.77Z" fill="#263238"/>
<path d="M278.6 349.77C278.6 349.77 262.83 345.59 249.95 336.89C237.07 328.19 227.01 318.09 209.06 320.18" stroke="white" stroke-width="1.10311" stroke-linecap="round" stroke-linejoin="round"/>
<path d="M247 334.84C255.14 332.5 261.11 327.23 267.64 322.18C274.528 316.652 281.924 311.791 289.73 307.66" stroke="white" stroke-width="1.10311" stroke-linecap="round" stroke-linejoin="round"/>
<path d="M244.13 167.05H246.52" stroke="#263238" stroke-width="1.10311" stroke-linecap="round" stroke-linejoin="round"/>
</g>
<defs>
<clipPath id="clip0_347_1923">
<rect width="384" height="387" fill="white"/>
</clipPath>
</defs>
</svg>
